<svg xmlns="http://www.w3.org/2000/svg" xml:lang="en" height="891.7599999999999pt" width="1915.0167999999999pt" viewBox="-7.8968 82.24 1915.0167999999999 891.7599999999999"><circle cx="45.35999999999999" cy="129.6" r="45.35999999999999" style="stroke:black;fill:lightblue;stroke-width:2;" /><circle cx="174.96" cy="129.6" r="45.35999999999999" style="stroke:black;fill:lightblue;stroke-width:2;" /><circle cx="304.56" cy="129.6" r="45.35999999999999" style="stroke:black;fill:lightblue;stroke-width:2;" /><circle cx="434.15999999999997" cy="129.6" r="45.35999999999999" style="stroke:black;fill:lightblue;stroke-width:2;" /><circle cx="45.35999999999999" cy="259.2" r="45.35999999999999" style="stroke:black;fill:lightblue;stroke-width:2;" /><circle cx="174.96" cy="259.2" r="45.35999999999999" style="stroke:black;fill:lightblue;stroke-width:2;" /><circle cx="304.56" cy="259.2" r="45.35999999999999" style="stroke:black;fill:lightblue;stroke-width:2;" /><circle cx="434.15999999999997" cy="259.2" r="45.35999999999999" style="stroke:black;fill:lightblue;stroke-width:2;" /><circle cx="563.7599999999999" cy="259.2" r="45.35999999999999" style="stroke:black;fill:lightblue;stroke-width:2;" /><circle cx="693.3599999999999" cy="259.2" r="45.35999999999999" style="stroke:black;fill:lightblue;stroke-width:2;" /><circle cx="822.9599999999999" cy="259.2" r="45.35999999999999" style="stroke:black;fill:lightblue;stroke-width:2;" /><circle cx="952.56" cy="259.2" r="45.35999999999999" style="stroke:black;fill:lightblue;stroke-width:2;" /><circle cx="45.35999999999999" cy="388.79999999999995" r="45.35999999999999" style="stroke:black;fill:lightblue;stroke-width:2;" /><circle cx="174.96" cy="388.79999999999995" r="45.35999999999999" style="stroke:black;fill:lightblue;stroke-width:2;" /><circle cx="304.56" cy="388.79999999999995" r="45.35999999999999" style="stroke:black;fill:lightblue;stroke-width:2;" /><circle cx="434.15999999999997" cy="388.79999999999995" r="45.35999999999999" style="stroke:black;fill:lightblue;stroke-width:2;" /><circle cx="563.7599999999999" cy="388.79999999999995" r="45.35999999999999" style="stroke:black;fill:lightblue;stroke-width:2;" /><circle cx="693.3599999999999" cy="388.79999999999995" r="45.35999999999999" style="stroke:black;fill:lightblue;stroke-width:2;" /><circle cx="822.9599999999999" cy="388.79999999999995" r="45.35999999999999" style="stroke:black;fill:lightblue;stroke-width:2;" /><circle cx="952.56" cy="388.79999999999995" r="45.35999999999999" style="stroke:black;fill:lightblue;stroke-width:2;" /><circle cx="1082.1599999999999" cy="388.79999999999995" r="45.35999999999999" style="stroke:black;fill:lightblue;stroke-width:2;" /><circle cx="1211.76" cy="388.79999999999995" r="45.35999999999999" style="stroke:black;fill:lightblue;stroke-width:2;" /><circle cx="1341.36" cy="388.79999999999995" r="45.35999999999999" style="stroke:black;fill:lightblue;stroke-width:2;" /><circle cx="45.35999999999999" cy="518.4" r="45.35999999999999" style="stroke:black;fill:lightblue;stroke-width:2;" /><circle cx="174.96" cy="518.4" r="45.35999999999999" style="stroke:black;fill:lightblue;stroke-width:2;" /><circle cx="304.56" cy="518.4" r="45.35999999999999" style="stroke:black;fill:lightblue;stroke-width:2;" /><circle cx="434.15999999999997" cy="518.4" r="45.35999999999999" style="stroke:black;fill:lightblue;stroke-width:2;" /><circle cx="563.7599999999999" cy="518.4" r="45.35999999999999" style="stroke:black;fill:lightblue;stroke-width:2;" /><circle cx="693.3599999999999" cy="518.4" r="45.35999999999999" style="stroke:black;fill:lightblue;stroke-width:2;" /><circle cx="822.9599999999999" cy="518.4" r="45.35999999999999" style="stroke:black;fill:lightblue;stroke-width:2;" /><circle cx="952.56" cy="518.4" r="45.35999999999999" style="stroke:black;fill:lightblue;stroke-width:2;" /><circle cx="1082.1599999999999" cy="518.4" r="45.35999999999999" style="stroke:black;fill:lightblue;stroke-width:2;" /><circle cx="1211.76" cy="518.4" r="45.35999999999999" style="stroke:black;fill:lightblue;stroke-width:2;" /><circle cx="1341.36" cy="518.4" r="45.35999999999999" style="stroke:black;fill:lightblue;stroke-width:2;" /><circle cx="1470.9599999999998" cy="518.4" r="45.35999999999999" style="stroke:black;fill:lightblue;stroke-width:2;" /><circle cx="1600.56" cy="518.4" r="45.35999999999999" style="stroke:black;fill:lightblue;stroke-width:2;" /><circle cx="1730.1599999999999" cy="518.4" r="45.35999999999999" style="stroke:black;fill:lightblue;stroke-width:2;" /><circle cx="1859.7599999999998" cy="518.4" r="45.35999999999999" style="stroke:black;fill:lightblue;stroke-width:2;" /><circle cx="45.35999999999999" cy="777.5999999999999" r="45.35999999999999" style="stroke:black;fill:lightblue;stroke-width:2;" /><circle cx="174.96" cy="777.5999999999999" r="45.35999999999999" style="stroke:black;fill:lightblue;stroke-width:2;" /><circle cx="304.56" cy="777.5999999999999" r="45.35999999999999" style="stroke:black;fill:lightblue;stroke-width:2;" /><circle cx="434.15999999999997" cy="777.5999999999999" r="45.35999999999999" style="stroke:black;fill:lightblue;stroke-width:2;" /><circle cx="563.7599999999999" cy="777.5999999999999" r="45.35999999999999" style="stroke:black;fill:lightblue;stroke-width:2;" /><circle cx="693.3599999999999" cy="777.5999999999999" r="45.35999999999999" style="stroke:black;fill:lightblue;stroke-width:2;" /><circle cx="822.9599999999999" cy="777.5999999999999" r="45.35999999999999" style="stroke:black;fill:lightblue;stroke-width:2;" /><circle cx="952.56" cy="777.5999999999999" r="45.35999999999999" style="stroke:black;fill:lightblue;stroke-width:2;" /><circle cx="1082.1599999999999" cy="777.5999999999999" r="45.35999999999999" style="stroke:black;fill:lightblue;stroke-width:2;" /><circle cx="1211.76" cy="777.5999999999999" r="45.35999999999999" style="stroke:black;fill:lightblue;stroke-width:2;" /><path d="M 45.35999999999999 213.83999999999997 Q 90.72 259.2 48.22378246380551 301.69621753619447" style="stroke:green;fill:none;stroke-width:2;stroke-linecap:round;" /><path d="M 46.774213562373085 303.1457864376269 L 49.369295449327716 297.11416559410566 L 52.80583440589433 300.55070455067226 Z" style="stroke:green;fill:green;stroke-linecap:butt;stroke-linejoin:miter;" /><path d="M 388.79999999999995 259.2 Q 239.76 408.23999999999995 93.58378246380553 262.0637824638055" style="stroke:violet;fill:none;stroke-width:2;stroke-linecap:round;" /><path d="M 92.1342135623731 260.6142135623731 L 98.16583440589436 263.2092954493277 L 94.72929544932774 266.64583440589433 Z" style="stroke:violet;fill:violet;stroke-linecap:butt;stroke-linejoin:miter;" /><path d="M 518.4 259.2 Q 304.56 473.03999999999996 93.58378246380553 262.0637824638055" style="stroke:red;fill:none;stroke-width:2;stroke-linecap:round;" /><path d="M 92.1342135623731 260.6142135623731 L 98.16583440589436 263.2092954493277 L 94.72929544932774 266.64583440589433 Z" style="stroke:red;fill:red;stroke-linecap:butt;stroke-linejoin:miter;" /><path d="M 648.0 259.2 Q 434.15999999999997 473.03999999999996 223.18378246380553 262.0637824638055" style="stroke:orange;fill:none;stroke-width:2;stroke-linecap:round;" /><path d="M 221.73421356237313 260.6142135623731 L 227.76583440589437 263.2092954493277 L 224.32929544932773 266.64583440589433 Z" style="stroke:orange;fill:orange;stroke-linecap:butt;stroke-linejoin:miter;" /><path d="M 648.0 259.2 Q 498.96 408.23999999999995 352.78378246380555 262.0637824638055" style="stroke:orange;fill:none;stroke-width:2;stroke-linecap:round;" /><path d="M 351.3342135623731 260.6142135623731 L 357.36583440589436 263.2092954493277 L 353.92929544932775 266.64583440589433 Z" style="stroke:orange;fill:orange;stroke-linecap:butt;stroke-linejoin:miter;" /><path d="M 777.5999999999999 259.2 Q 434.15999999999997 602.64 93.58378246380553 262.0637824638055" style="stroke:yellow;fill:none;stroke-width:2;stroke-linecap:round;" /><path d="M 92.1342135623731 260.6142135623731 L 98.16583440589436 263.2092954493277 L 94.72929544932774 266.64583440589433 Z" style="stroke:yellow;fill:yellow;stroke-linecap:butt;stroke-linejoin:miter;" /><path d="M 907.1999999999999 259.2 Q 563.7599999999999 602.64 223.18378246380553 262.0637824638055" style="stroke:yellowgreen;fill:none;stroke-width:2;stroke-linecap:round;" /><path d="M 221.73421356237313 260.6142135623731 L 227.76583440589437 263.2092954493277 L 224.32929544932773 266.64583440589433 Z" style="stroke:yellowgreen;fill:yellowgreen;stroke-linecap:butt;stroke-linejoin:miter;" /><path d="M 907.1999999999999 259.2 Q 628.56 537.84 352.78378246380555 262.0637824638055" style="stroke:yellowgreen;fill:none;stroke-width:2;stroke-linecap:round;" /><path d="M 351.3342135623731 260.6142135623731 L 357.36583440589436 263.2092954493277 L 353.92929544932775 266.64583440589433 Z" style="stroke:yellowgreen;fill:yellowgreen;stroke-linecap:butt;stroke-linejoin:miter;" /><path d="M 259.2 388.79999999999995 Q 174.96 473.03999999999996 93.5837824638055 391.66378246380555" style="stroke:indigo;fill:none;stroke-width:2;stroke-linecap:round;" /><path d="M 92.13421356237308 390.21421356237306 L 98.16583440589433 392.8092954493277 L 94.72929544932771 396.2458344058943 Z" style="stroke:indigo;fill:indigo;stroke-linecap:butt;stroke-linejoin:miter;" /><path d="M 304.56 343.44 Q 285.12 583.1999999999999 49.39675264486444 564.0873042685024" style="stroke:indigo;fill:none;stroke-width:2;stroke-linecap:round;" /><path d="M 47.35345809622936 563.921631737532 L 53.62988785083039 561.9925569500863 L 53.23712272862736 566.8366601239236 Z" style="stroke:indigo;fill:indigo;stroke-linecap:butt;stroke-linejoin:miter;" /><path d="M 777.5999999999999 388.79999999999995 Q 693.3599999999999 473.03999999999996 611.9837824638055 391.66378246380555" style="stroke:yellow;fill:none;stroke-width:2;stroke-linecap:round;" /><path d="M 610.5342135623731 390.21421356237306 L 616.5658344058943 392.8092954493277 L 613.1292954493277 396.2458344058943 Z" style="stroke:yellow;fill:yellow;stroke-linecap:butt;stroke-linejoin:miter;" /><path d="M 1036.8 388.79999999999995 Q 758.16 667.44 482.3837824638055 391.66378246380555" style="stroke:green;fill:none;stroke-width:2;stroke-linecap:round;" /><path d="M 480.9342135623731 390.21421356237306 L 486.9658344058943 392.8092954493277 L 483.5292954493277 396.2458344058943 Z" style="stroke:green;fill:green;stroke-linecap:butt;stroke-linejoin:miter;" /><path d="M 1166.3999999999999 388.79999999999995 Q 822.9599999999999 732.24 482.3837824638055 391.66378246380555" style="stroke:blue;fill:none;stroke-width:2;stroke-linecap:round;" /><path d="M 480.9342135623731 390.21421356237306 L 486.9658344058943 392.8092954493277 L 483.5292954493277 396.2458344058943 Z" style="stroke:blue;fill:blue;stroke-linecap:butt;stroke-linejoin:miter;" /><path d="M 1296.0 388.79999999999995 Q 952.56 732.24 611.9837824638055 391.66378246380555" style="stroke:indigo;fill:none;stroke-width:2;stroke-linecap:round;" /><path d="M 610.5342135623731 390.21421356237306 L 616.5658344058943 392.8092954493277 L 613.1292954493277 396.2458344058943 Z" style="stroke:indigo;fill:indigo;stroke-linecap:butt;stroke-linejoin:miter;" /><path d="M 174.96 473.03999999999996 Q 304.56 129.6 644.2108130382494 257.7701181276413" style="stroke:red;fill:none;stroke-width:2;stroke-linecap:round;" /><path d="M 646.1287965620985 258.4938854951315 L 639.5636969530838 258.6137484323329 L 641.2795551999142 254.0667240782323 Z" style="stroke:red;fill:red;stroke-linecap:butt;stroke-linejoin:miter;" /><path d="M 304.56 473.03999999999996 Q 434.15999999999997 129.6 773.8108130382494 257.7701181276413" style="stroke:orange;fill:none;stroke-width:2;stroke-linecap:round;" /><path d="M 775.7287965620984 258.4938854951315 L 769.1636969530837 258.6137484323329 L 770.8795551999141 254.0667240782323 Z" style="stroke:orange;fill:orange;stroke-linecap:butt;stroke-linejoin:miter;" /><path d="M 434.15999999999997 473.03999999999996 Q 434.15999999999997 259.2 643.9499999999999 259.2" style="stroke:yellow;fill:none;stroke-width:2;stroke-linecap:round;" /><path d="M 646.0 259.2 L 639.9000000000001 261.63 L 639.9000000000001 256.77 Z" style="stroke:yellow;fill:yellow;stroke-linecap:butt;stroke-linejoin:miter;" /><path d="M 563.7599999999999 473.03999999999996 Q 498.9599999999999 324.0 644.2858662721744 260.8148407512285" style="stroke:yellowgreen;fill:none;stroke-width:2;stroke-linecap:round;" /><path d="M 646.1658598874935 259.9974522228289 L 641.540636995086 264.65816173915243 L 639.6028280936117 260.2012012657617 Z" style="stroke:yellowgreen;fill:yellowgreen;stroke-linecap:butt;stroke-linejoin:miter;" /><path d="M 822.9599999999999 473.03999999999996 Q 628.56 453.59999999999997 647.597009937965 263.2299006203504" style="stroke:blue;fill:none;stroke-width:2;stroke-linecap:round;" /><path d="M 647.800992561958 261.19007438041996 L 649.6119602481401 267.5015952779219 L 644.7760795037196 267.0180072034799 Z" style="stroke:blue;fill:blue;stroke-linecap:butt;stroke-linejoin:miter;" /><path d="M 952.56 473.03999999999996 Q 693.3599999999999 518.4 648.6981403435965 263.1893733919806" style="stroke:indigo;fill:none;stroke-width:2;stroke-linecap:round;" /><path d="M 648.3447606635045 261.1700609343114 L 651.7899047223816 266.75986257780323 L 647.0026566520048 267.59763099011917 Z" style="stroke:indigo;fill:indigo;stroke-linecap:butt;stroke-linejoin:miter;" /><path d="M 1082.1599999999999 473.03999999999996 Q 803.5199999999999 583.1999999999999 694.8490185019529 308.32634091670445" style="stroke:violet;fill:none;stroke-width:2;stroke-linecap:round;" /><path d="M 694.0953177787421 306.4199214403479 L 698.5978415539284 311.19927073223715 L 694.0782324538831 312.9860929345806 Z" style="stroke:violet;fill:violet;stroke-linecap:butt;stroke-linejoin:miter;" /><path d="M 1211.76 473.03999999999996 Q 868.3199999999998 648.0 695.1983994147464 308.1687099622801" style="stroke:red;fill:none;stroke-width:2;stroke-linecap:round;" /><path d="M 694.2678515628377 306.3420789937186 L 699.202024806861 310.67438027571234 L 694.8715728521248 312.88045957340813 Z" style="stroke:red;fill:red;stroke-linecap:butt;stroke-linejoin:miter;" /><path d="M 1341.36 473.03999999999996 Q 933.1199999999999 712.8 695.4110085110323 308.05225773500086" style="stroke:orange;fill:none;stroke-width:2;stroke-linecap:round;" /><path d="M 694.3728437091517 306.2845717209881 L 699.5573716630649 310.3139103633824 L 695.3666623810639 312.7751205766211 Z" style="stroke:orange;fill:orange;stroke-linecap:butt;stroke-linejoin:miter;" /><path d="M 1600.56 473.03999999999996 Q 1062.7199999999998 842.4 695.6527343382321 307.89854298374166" style="stroke:yellowgreen;fill:none;stroke-width:2;stroke-linecap:round;" /><path d="M 694.4922144880159 306.20866320184774 L 699.9485944667093 309.861445364544 L 695.9423428862193 312.6127265704227 Z" style="stroke:yellowgreen;fill:yellowgreen;stroke-linecap:butt;stroke-linejoin:miter;" /><path d="M 1730.1599999999999 473.03999999999996 Q 1192.32 842.4 825.2527343382321 307.89854298374166" style="stroke:green;fill:none;stroke-width:2;stroke-linecap:round;" /><path d="M 824.0922144880159 306.20866320184774 L 829.5485944667093 309.861445364544 L 825.5423428862193 312.6127265704227 Z" style="stroke:green;fill:green;stroke-linecap:butt;stroke-linejoin:miter;" /><path d="M 1730.1599999999999 473.03999999999996 Q 1127.5199999999998 907.1999999999999 695.7273648615238 307.84604376301075" style="stroke:green;fill:none;stroke-width:2;stroke-linecap:round;" /><path d="M 694.5290690674191 306.18273766074606 L 700.0663559808542 309.7116686091072 L 696.1231034652412 312.55250644293585 Z" style="stroke:green;fill:green;stroke-linecap:butt;stroke-linejoin:miter;" /><path d="M 1859.7599999999998 473.03999999999996 Q 1257.12 907.1999999999999 825.3273648615238 307.84604376301075" style="stroke:blue;fill:none;stroke-width:2;stroke-linecap:round;" /><path d="M 824.1290690674191 306.18273766074606 L 829.6663559808542 309.7116686091072 L 825.7231034652413 312.55250644293585 Z" style="stroke:blue;fill:blue;stroke-linecap:butt;stroke-linejoin:miter;" /><path d="M 1859.7599999999998 473.03999999999996 Q 1192.32 972.0 695.7849581871563 307.8037752373651" style="stroke:blue;fill:none;stroke-width:2;stroke-linecap:round;" /><path d="M 694.5575102158796 306.1618643147482 L 700.1561815167319 309.5925755624363 L 696.2636512318937 312.50252538702404 Z" style="stroke:blue;fill:blue;stroke-linecap:butt;stroke-linejoin:miter;" /><path d="M 45.35999999999999 732.24 Q 174.96 129.6 773.6405243392575 258.3484998579048" style="stroke:indigo;fill:none;stroke-width:2;stroke-linecap:round;" /><path d="M 775.644703377411 258.7795061026691 L 769.1701485932579 259.8726851122551 L 770.1919487637721 255.1213143193642 Z" style="stroke:indigo;fill:indigo;stroke-linecap:butt;stroke-linejoin:miter;" /><path d="M 45.35999999999999 732.24 Q 110.16 194.39999999999998 643.979078492124 258.7155516255571" style="stroke:indigo;fill:none;stroke-width:2;stroke-linecap:round;" /><path d="M 646.0143597491971 258.960766234843 L 639.6674879595823 260.64365615583984 L 640.2488260089137 255.81855034638863 Z" style="stroke:indigo;fill:indigo;stroke-linecap:butt;stroke-linejoin:miter;" /><path d="M 174.96 732.24 Q 239.76 194.39999999999998 773.579078492124 258.7155516255571" style="stroke:violet;fill:none;stroke-width:2;stroke-linecap:round;" /><path d="M 775.614359749197 258.960766234843 L 769.2674879595822 260.64365615583984 L 769.8488260089136 255.81855034638863 Z" style="stroke:violet;fill:violet;stroke-linecap:butt;stroke-linejoin:miter;" /><path d="M 174.96 732.24 Q 174.95999999999998 259.2 643.9499999999999 259.2" style="stroke:violet;fill:none;stroke-width:2;stroke-linecap:round;" /><path d="M 646.0 259.2 L 639.9000000000001 261.63 L 639.9000000000001 256.77 Z" style="stroke:violet;fill:violet;stroke-linecap:butt;stroke-linejoin:miter;" /><path d="M 304.56 732.24 Q 304.55999999999995 259.2 773.55 259.2" style="stroke:red;fill:none;stroke-width:2;stroke-linecap:round;" /><path d="M 775.5999999999999 259.2 L 769.5 261.63 L 769.5 256.77 Z" style="stroke:red;fill:red;stroke-linecap:butt;stroke-linejoin:miter;" /><path d="M 304.56 732.24 Q 239.75999999999996 324.0 644.0000761097189 259.8349085540128" style="stroke:red;fill:none;stroke-width:2;stroke-linecap:round;" /><path d="M 646.0247289430711 259.5135350884014 L 640.3810973518456 262.8697714421944 L 639.6192070870302 258.0698627738571 Z" style="stroke:red;fill:red;stroke-linecap:butt;stroke-linejoin:miter;" /><path d="M 434.15999999999997 732.24 Q 369.35999999999996 324.0 773.6000761097189 259.8349085540128" style="stroke:orange;fill:none;stroke-width:2;stroke-linecap:round;" /><path d="M 775.624728943071 259.5135350884014 L 769.9810973518455 262.8697714421944 L 769.2192070870301 258.0698627738571 Z" style="stroke:orange;fill:orange;stroke-linecap:butt;stroke-linejoin:miter;" /><path d="M 434.15999999999997 732.24 Q 304.55999999999995 388.79999999999995 644.2108130382494 260.6298818723587" style="stroke:orange;fill:none;stroke-width:2;stroke-linecap:round;" /><path d="M 646.1287965620985 259.90611450486847 L 641.2795551999142 264.33327592176767 L 639.5636969530838 259.7862515676671 Z" style="stroke:orange;fill:orange;stroke-linecap:butt;stroke-linejoin:miter;" /><path d="M 563.7599999999999 732.24 Q 434.1599999999999 388.79999999999995 773.8108130382494 260.6298818723587" style="stroke:yellow;fill:none;stroke-width:2;stroke-linecap:round;" /><path d="M 775.7287965620984 259.90611450486847 L 770.8795551999141 264.33327592176767 L 769.1636969530837 259.7862515676671 Z" style="stroke:yellow;fill:yellow;stroke-linecap:butt;stroke-linejoin:miter;" /><path d="M 563.7599999999999 732.24 Q 369.35999999999996 453.59999999999997 644.6784858350802 261.5173354638975" style="stroke:yellow;fill:none;stroke-width:2;stroke-linecap:round;" /><path d="M 646.3597460913976 260.34436319204815 L 642.747372948499 265.8275794267469 L 639.9665703918218 261.84176242884314 Z" style="stroke:yellow;fill:yellow;stroke-linecap:butt;stroke-linejoin:miter;" /><path d="M 693.3599999999999 732.24 Q 498.9599999999999 453.59999999999997 774.2784858350802 261.5173354638975" style="stroke:yellowgreen;fill:none;stroke-width:2;stroke-linecap:round;" /><path d="M 775.9597460913975 260.34436319204815 L 772.3473729484989 265.8275794267469 L 769.5665703918218 261.84176242884314 Z" style="stroke:yellowgreen;fill:yellowgreen;stroke-linecap:butt;stroke-linejoin:miter;" /><path d="M 693.3599999999999 732.24 Q 434.1599999999999 518.4 645.422649033078 262.3240617780873" style="stroke:yellowgreen;fill:none;stroke-width:2;stroke-linecap:round;" /><path d="M 646.7272340904088 260.7427465570801 L 644.7197351330083 266.99453413632784 L 640.9708609993036 263.9017129760214 Z" style="stroke:yellowgreen;fill:yellowgreen;stroke-linecap:butt;stroke-linejoin:miter;" /><path d="M 822.9599999999999 732.24 Q 563.7599999999999 518.4 775.022649033078 262.3240617780873" style="stroke:green;fill:none;stroke-width:2;stroke-linecap:round;" /><path d="M 776.3272340904088 260.7427465570801 L 774.3197351330082 266.99453413632784 L 770.5708609993035 263.9017129760214 Z" style="stroke:green;fill:green;stroke-linecap:butt;stroke-linejoin:miter;" /><path d="M 822.9599999999999 732.24 Q 498.9599999999999 583.1999999999999 646.3074822866598 262.87938633334824" style="stroke:green;fill:none;stroke-width:2;stroke-linecap:round;" /><path d="M 647.1641887835357 261.0169809053571 L 646.8225963733286 267.5742832947006 L 642.4073327733107 265.5432620386924 Z" style="stroke:green;fill:green;stroke-linecap:butt;stroke-linejoin:miter;" /><path d="M 952.56 732.24 Q 628.56 583.1999999999999 775.9074822866598 262.87938633334824" style="stroke:blue;fill:none;stroke-width:2;stroke-linecap:round;" /><path d="M 776.7641887835356 261.0169809053571 L 776.4225963733285 267.5742832947006 L 772.0073327733106 265.5432620386924 Z" style="stroke:blue;fill:blue;stroke-linecap:butt;stroke-linejoin:miter;" /><path d="M 952.56 732.24 Q 563.7599999999999 648.0 647.1423989446264 263.1581587171085" style="stroke:blue;fill:none;stroke-width:2;stroke-linecap:round;" /><path d="M 647.5764933059884 261.15464628005356 L 648.6596931195181 267.63087806744113 L 643.9099026589879 266.6017568009929 Z" style="stroke:blue;fill:blue;stroke-linecap:butt;stroke-linejoin:miter;" /><path d="M 1082.1599999999999 732.24 Q 693.3599999999999 648.0 776.7423989446264 263.1581587171085" style="stroke:indigo;fill:none;stroke-width:2;stroke-linecap:round;" /><path d="M 777.1764933059883 261.15464628005356 L 778.259693119518 267.63087806744113 L 773.5099026589878 266.6017568009929 Z" style="stroke:indigo;fill:indigo;stroke-linecap:butt;stroke-linejoin:miter;" /><path d="M 1082.1599999999999 732.24 Q 673.9199999999998 712.8 693.1673611448674 308.605415957784" style="stroke:indigo;fill:none;stroke-width:2;stroke-linecap:round;" /><path d="M 693.264869701169 306.55773627544886 L 695.4019718644051 312.7664152286475 L 690.5474727150644 312.5352486024884 Z" style="stroke:indigo;fill:indigo;stroke-linecap:butt;stroke-linejoin:miter;" /><path d="M 1211.76 732.24 Q 803.5199999999999 712.8 822.7673611448673 308.605415957784" style="stroke:violet;fill:none;stroke-width:2;stroke-linecap:round;" /><path d="M 822.864869701169 306.55773627544886 L 825.0019718644052 312.7664152286475 L 820.1474727150644 312.5352486024884 Z" style="stroke:violet;fill:violet;stroke-linecap:butt;stroke-linejoin:miter;" /><path d="M 1211.76 732.24 Q 738.7199999999999 777.5999999999999 693.7465829219228 308.5915076143395" style="stroke:violet;fill:none;stroke-width:2;stroke-linecap:round;" /><path d="M 693.5509051466286 306.55086795769853 L 696.5520704124496 312.39106547552524 L 691.714261275242 312.8549649818328 Z" style="stroke:violet;fill:violet;stroke-linecap:butt;stroke-linejoin:miter;" /><path d="M 0.0,155.51999999999998 L 0.0,136.08 L 90.71999999999998,136.08 L 90.71999999999998,174.95999999999998 L 0.0,174.95999999999998 L 0.0,155.51999999999998" style="stroke:black;fill:lightblue;stroke-width:2;stroke-linecap:round;stroke-linejoin:round;" /><path d="M 129.6,155.51999999999998 L 129.6,136.08 L 220.32,136.08 L 220.32,174.95999999999998 L 129.6,174.95999999999998 L 129.6,155.51999999999998" style="stroke:black;fill:lightblue;stroke-width:2;stroke-linecap:round;stroke-linejoin:round;" /><path d="M 259.2,155.51999999999998 L 259.2,136.08 L 349.92,136.08 L 349.92,174.95999999999998 L 259.2,174.95999999999998 L 259.2,155.51999999999998" style="stroke:black;fill:lightblue;stroke-width:2;stroke-linecap:round;stroke-linejoin:round;" /><path d="M 388.79999999999995,155.51999999999998 L 388.79999999999995,136.08 L 479.52,136.08 L 479.52,174.95999999999998 L 388.79999999999995,174.95999999999998 L 388.79999999999995,155.51999999999998" style="stroke:black;fill:lightblue;stroke-width:2;stroke-linecap:round;stroke-linejoin:round;" /><path d="M 0.0,285.12 L 0.0,265.68 L 90.71999999999998,265.68 L 90.71999999999998,304.56 L 0.0,304.56 L 0.0,285.12" style="stroke:black;fill:lightblue;stroke-width:2;stroke-linecap:round;stroke-linejoin:round;" /><path d="M 129.6,285.12 L 129.6,265.68 L 220.32,265.68 L 220.32,304.56 L 129.6,304.56 L 129.6,285.12" style="stroke:black;fill:lightblue;stroke-width:2;stroke-linecap:round;stroke-linejoin:round;" /><path d="M 259.2,285.12 L 259.2,265.68 L 349.92,265.68 L 349.92,304.56 L 259.2,304.56 L 259.2,285.12" style="stroke:black;fill:lightblue;stroke-width:2;stroke-linecap:round;stroke-linejoin:round;" /><path d="M 388.79999999999995,285.12 L 388.79999999999995,265.68 L 479.52,265.68 L 479.52,304.56 L 388.79999999999995,304.56 L 388.79999999999995,285.12" style="stroke:black;fill:lightblue;stroke-width:2;stroke-linecap:round;stroke-linejoin:round;" /><path d="M 518.4,285.12 L 518.4,265.68 L 609.12,265.68 L 609.12,304.56 L 518.4,304.56 L 518.4,285.12" style="stroke:black;fill:lightblue;stroke-width:2;stroke-linecap:round;stroke-linejoin:round;" /><path d="M 648.0,285.12 L 648.0,265.68 L 738.72,265.68 L 738.72,304.56 L 648.0,304.56 L 648.0,285.12" style="stroke:black;fill:lightblue;stroke-width:2;stroke-linecap:round;stroke-linejoin:round;" /><path d="M 777.5999999999999,285.12 L 777.5999999999999,265.68 L 868.3199999999999,265.68 L 868.3199999999999,304.56 L 777.5999999999999,304.56 L 777.5999999999999,285.12" style="stroke:black;fill:lightblue;stroke-width:2;stroke-linecap:round;stroke-linejoin:round;" /><path d="M 907.1999999999999,285.12 L 907.1999999999999,265.68 L 997.92,265.68 L 997.92,304.56 L 907.1999999999999,304.56 L 907.1999999999999,285.12" style="stroke:black;fill:lightblue;stroke-width:2;stroke-linecap:round;stroke-linejoin:round;" /><path d="M 0.0,414.72 L 0.0,395.28000000000003 L 90.71999999999998,395.28000000000003 L 90.71999999999998,434.15999999999997 L 0.0,434.15999999999997 L 0.0,414.72" style="stroke:black;fill:lightblue;stroke-width:2;stroke-linecap:round;stroke-linejoin:round;" /><path d="M 129.6,414.72 L 129.6,395.28000000000003 L 220.32,395.28000000000003 L 220.32,434.15999999999997 L 129.6,434.15999999999997 L 129.6,414.72" style="stroke:black;fill:lightblue;stroke-width:2;stroke-linecap:round;stroke-linejoin:round;" /><path d="M 259.2,414.72 L 259.2,395.28000000000003 L 349.92,395.28000000000003 L 349.92,434.15999999999997 L 259.2,434.15999999999997 L 259.2,414.72" style="stroke:black;fill:lightblue;stroke-width:2;stroke-linecap:round;stroke-linejoin:round;" /><path d="M 388.79999999999995,414.72 L 388.79999999999995,395.28000000000003 L 479.52,395.28000000000003 L 479.52,434.15999999999997 L 388.79999999999995,434.15999999999997 L 388.79999999999995,414.72" style="stroke:black;fill:lightblue;stroke-width:2;stroke-linecap:round;stroke-linejoin:round;" /><path d="M 518.4,414.72 L 518.4,395.28000000000003 L 609.12,395.28000000000003 L 609.12,434.15999999999997 L 518.4,434.15999999999997 L 518.4,414.72" style="stroke:black;fill:lightblue;stroke-width:2;stroke-linecap:round;stroke-linejoin:round;" /><path d="M 648.0,414.72 L 648.0,395.28000000000003 L 738.72,395.28000000000003 L 738.72,434.15999999999997 L 648.0,434.15999999999997 L 648.0,414.72" style="stroke:black;fill:lightblue;stroke-width:2;stroke-linecap:round;stroke-linejoin:round;" /><path d="M 777.5999999999999,414.72 L 777.5999999999999,395.28000000000003 L 868.3199999999999,395.28000000000003 L 868.3199999999999,434.15999999999997 L 777.5999999999999,434.15999999999997 L 777.5999999999999,414.72" style="stroke:black;fill:lightblue;stroke-width:2;stroke-linecap:round;stroke-linejoin:round;" /><path d="M 907.1999999999999,414.72 L 907.1999999999999,395.28000000000003 L 997.92,395.28000000000003 L 997.92,434.15999999999997 L 907.1999999999999,434.15999999999997 L 907.1999999999999,414.72" style="stroke:black;fill:lightblue;stroke-width:2;stroke-linecap:round;stroke-linejoin:round;" /><path d="M 1036.8,414.72 L 1036.8,395.28000000000003 L 1127.5199999999998,395.28000000000003 L 1127.5199999999998,434.15999999999997 L 1036.8,434.15999999999997 L 1036.8,414.72" style="stroke:black;fill:lightblue;stroke-width:2;stroke-linecap:round;stroke-linejoin:round;" /><path d="M 1166.3999999999999,414.72 L 1166.3999999999999,395.28000000000003 L 1257.12,395.28000000000003 L 1257.12,434.15999999999997 L 1166.3999999999999,434.15999999999997 L 1166.3999999999999,414.72" style="stroke:black;fill:lightblue;stroke-width:2;stroke-linecap:round;stroke-linejoin:round;" /><path d="M 1296.0,414.72 L 1296.0,395.28000000000003 L 1386.7199999999998,395.28000000000003 L 1386.7199999999998,434.15999999999997 L 1296.0,434.15999999999997 L 1296.0,414.72" style="stroke:black;fill:lightblue;stroke-width:2;stroke-linecap:round;stroke-linejoin:round;" /><path d="M 0.0,544.32 L 0.0,524.88 L 90.71999999999998,524.88 L 90.71999999999998,563.76 L 0.0,563.76 L 0.0,544.32" style="stroke:black;fill:lightblue;stroke-width:2;stroke-linecap:round;stroke-linejoin:round;" /><path d="M 129.6,544.32 L 129.6,524.88 L 220.32,524.88 L 220.32,563.76 L 129.6,563.76 L 129.6,544.32" style="stroke:black;fill:lightblue;stroke-width:2;stroke-linecap:round;stroke-linejoin:round;" /><path d="M 259.2,544.32 L 259.2,524.88 L 349.92,524.88 L 349.92,563.76 L 259.2,563.76 L 259.2,544.32" style="stroke:black;fill:lightblue;stroke-width:2;stroke-linecap:round;stroke-linejoin:round;" /><path d="M 388.79999999999995,544.32 L 388.79999999999995,524.88 L 479.52,524.88 L 479.52,563.76 L 388.79999999999995,563.76 L 388.79999999999995,544.32" style="stroke:black;fill:lightblue;stroke-width:2;stroke-linecap:round;stroke-linejoin:round;" /><path d="M 518.4,544.32 L 518.4,524.88 L 609.12,524.88 L 609.12,563.76 L 518.4,563.76 L 518.4,544.32" style="stroke:black;fill:lightblue;stroke-width:2;stroke-linecap:round;stroke-linejoin:round;" /><path d="M 648.0,544.32 L 648.0,524.88 L 738.72,524.88 L 738.72,563.76 L 648.0,563.76 L 648.0,544.32" style="stroke:black;fill:lightblue;stroke-width:2;stroke-linecap:round;stroke-linejoin:round;" /><path d="M 777.5999999999999,544.32 L 777.5999999999999,524.88 L 868.3199999999999,524.88 L 868.3199999999999,563.76 L 777.5999999999999,563.76 L 777.5999999999999,544.32" style="stroke:black;fill:lightblue;stroke-width:2;stroke-linecap:round;stroke-linejoin:round;" /><path d="M 907.1999999999999,544.32 L 907.1999999999999,524.88 L 997.92,524.88 L 997.92,563.76 L 907.1999999999999,563.76 L 907.1999999999999,544.32" style="stroke:black;fill:lightblue;stroke-width:2;stroke-linecap:round;stroke-linejoin:round;" /><path d="M 1036.8,544.32 L 1036.8,524.88 L 1127.5199999999998,524.88 L 1127.5199999999998,563.76 L 1036.8,563.76 L 1036.8,544.32" style="stroke:black;fill:lightblue;stroke-width:2;stroke-linecap:round;stroke-linejoin:round;" /><path d="M 1166.3999999999999,544.32 L 1166.3999999999999,524.88 L 1257.12,524.88 L 1257.12,563.76 L 1166.3999999999999,563.76 L 1166.3999999999999,544.32" style="stroke:black;fill:lightblue;stroke-width:2;stroke-linecap:round;stroke-linejoin:round;" /><path d="M 1296.0,544.32 L 1296.0,524.88 L 1386.7199999999998,524.88 L 1386.7199999999998,563.76 L 1296.0,563.76 L 1296.0,544.32" style="stroke:black;fill:lightblue;stroke-width:2;stroke-linecap:round;stroke-linejoin:round;" /><path d="M 1425.6,544.32 L 1425.6,524.88 L 1516.32,524.88 L 1516.32,563.76 L 1425.6,563.76 L 1425.6,544.32" style="stroke:black;fill:lightblue;stroke-width:2;stroke-linecap:round;stroke-linejoin:round;" /><path d="M 1555.1999999999998,544.32 L 1555.1999999999998,524.88 L 1645.9199999999998,524.88 L 1645.9199999999998,563.76 L 1555.1999999999998,563.76 L 1555.1999999999998,544.32" style="stroke:black;fill:lightblue;stroke-width:2;stroke-linecap:round;stroke-linejoin:round;" /><path d="M 1684.8,544.32 L 1684.8,524.88 L 1775.5199999999998,524.88 L 1775.5199999999998,563.76 L 1684.8,563.76 L 1684.8,544.32" style="stroke:black;fill:lightblue;stroke-width:2;stroke-linecap:round;stroke-linejoin:round;" /><path d="M 1814.3999999999999,544.32 L 1814.3999999999999,524.88 L 1905.12,524.88 L 1905.12,563.76 L 1814.3999999999999,563.76 L 1814.3999999999999,544.32" style="stroke:black;fill:lightblue;stroke-width:2;stroke-linecap:round;stroke-linejoin:round;" /><path d="M 0.0,803.52 L 0.0,784.0799999999999 L 90.71999999999998,784.0799999999999 L 90.71999999999998,822.96 L 0.0,822.96 L 0.0,803.52" style="stroke:black;fill:lightblue;stroke-width:2;stroke-linecap:round;stroke-linejoin:round;" /><path d="M 129.6,803.52 L 129.6,784.0799999999999 L 220.32,784.0799999999999 L 220.32,822.96 L 129.6,822.96 L 129.6,803.52" style="stroke:black;fill:lightblue;stroke-width:2;stroke-linecap:round;stroke-linejoin:round;" /><path d="M 259.2,803.52 L 259.2,784.0799999999999 L 349.92,784.0799999999999 L 349.92,822.96 L 259.2,822.96 L 259.2,803.52" style="stroke:black;fill:lightblue;stroke-width:2;stroke-linecap:round;stroke-linejoin:round;" /><path d="M 388.79999999999995,803.52 L 388.79999999999995,784.0799999999999 L 479.52,784.0799999999999 L 479.52,822.96 L 388.79999999999995,822.96 L 388.79999999999995,803.52" style="stroke:black;fill:lightblue;stroke-width:2;stroke-linecap:round;stroke-linejoin:round;" /><path d="M 518.4,803.52 L 518.4,784.0799999999999 L 609.12,784.0799999999999 L 609.12,822.96 L 518.4,822.96 L 518.4,803.52" style="stroke:black;fill:lightblue;stroke-width:2;stroke-linecap:round;stroke-linejoin:round;" /><path d="M 648.0,803.52 L 648.0,784.0799999999999 L 738.72,784.0799999999999 L 738.72,822.96 L 648.0,822.96 L 648.0,803.52" style="stroke:black;fill:lightblue;stroke-width:2;stroke-linecap:round;stroke-linejoin:round;" /><path d="M 777.5999999999999,803.52 L 777.5999999999999,784.0799999999999 L 868.3199999999999,784.0799999999999 L 868.3199999999999,822.96 L 777.5999999999999,822.96 L 777.5999999999999,803.52" style="stroke:black;fill:lightblue;stroke-width:2;stroke-linecap:round;stroke-linejoin:round;" /><path d="M 907.1999999999999,803.52 L 907.1999999999999,784.0799999999999 L 997.92,784.0799999999999 L 997.92,822.96 L 907.1999999999999,822.96 L 907.1999999999999,803.52" style="stroke:black;fill:lightblue;stroke-width:2;stroke-linecap:round;stroke-linejoin:round;" /><path d="M 1036.8,803.52 L 1036.8,784.0799999999999 L 1127.5199999999998,784.0799999999999 L 1127.5199999999998,822.96 L 1036.8,822.96 L 1036.8,803.52" style="stroke:black;fill:lightblue;stroke-width:2;stroke-linecap:round;stroke-linejoin:round;" /><path d="M 1166.3999999999999,803.52 L 1166.3999999999999,784.0799999999999 L 1257.12,784.0799999999999 L 1257.12,822.96 L 1166.3999999999999,822.96 L 1166.3999999999999,803.52" style="stroke:black;fill:lightblue;stroke-width:2;stroke-linecap:round;stroke-linejoin:round;" /><path d="M 45.35999999999999,213.83999999999997 L 174.96,194.39999999999998 L 296.54961554176674,176.16155766873499" style="stroke:green;fill:none;stroke-width:2;stroke-linecap:round;stroke-linejoin:round;" /><path d="M 302.5821272942634 175.2566809058605 L 296.9100828423873 178.56467300620497 L 296.18914824114626 173.75844233126503 Z" style="stroke:green;fill:green;stroke-linecap:butt;stroke-linejoin:miter;" /><path d="M 45.35999999999999,213.83999999999997 L 45.35999999999999,194.39999999999998 L 45.35999999999999,183.06" style="stroke:green;fill:none;stroke-width:2;stroke-linecap:round;stroke-linejoin:round;" /><path d="M 45.35999999999999 176.96 L 47.78999999999999 183.06000000000003 L 42.92999999999999 183.06000000000003 Z" style="stroke:green;fill:green;stroke-linecap:butt;stroke-linejoin:miter;" /><path d="M 45.35999999999999,213.83999999999997 L 110.16,194.39999999999998 L 167.20160708970866,177.28751787308738" style="stroke:green;fill:none;stroke-width:2;stroke-linecap:round;stroke-linejoin:round;" /><path d="M 173.04434742955772 175.5346957711327 L 167.8998624516349 179.6150357461748 L 166.50335172778247 174.96 Z" style="stroke:green;fill:green;stroke-linecap:butt;stroke-linejoin:miter;" /><path d="M 45.35999999999999,213.83999999999997 L 239.76,194.39999999999998 L 426.1001987592991,175.7659801240701" style="stroke:green;fill:none;stroke-width:2;stroke-linecap:round;stroke-linejoin:round;" /><path d="M 432.16992561958 175.159007438042 L 426.34199279652006 178.1839204962804 L 425.85840472207803 173.34803975185983 Z" style="stroke:green;fill:green;stroke-linecap:butt;stroke-linejoin:miter;" /><path d="M 434.15999999999997,213.83999999999997 L 369.36,194.39999999999998 L 312.3183929102913,177.28751787308738" style="stroke:violet;fill:none;stroke-width:2;stroke-linecap:round;stroke-linejoin:round;" /><path d="M 306.4756525704423 175.5346957711327 L 313.0166482722176 174.96 L 311.6201375483651 179.6150357461748 Z" style="stroke:violet;fill:violet;stroke-linecap:butt;stroke-linejoin:miter;" /><path d="M 434.15999999999997,213.83999999999997 L 239.76,194.39999999999998 L 53.41980124070092,175.7659801240701" style="stroke:violet;fill:none;stroke-width:2;stroke-linecap:round;stroke-linejoin:round;" /><path d="M 47.35007438041998 175.159007438042 L 53.66159527792195 173.34803975185983 L 53.178007203479886 178.1839204962804 Z" style="stroke:violet;fill:violet;stroke-linecap:butt;stroke-linejoin:miter;" /><path d="M 434.15999999999997,213.83999999999997 L 304.56,194.39999999999998 L 182.9703844582332,176.16155766873496" style="stroke:violet;fill:none;stroke-width:2;stroke-linecap:round;stroke-linejoin:round;" /><path d="M 176.9378727057366 175.25668090586046 L 183.3308517588537 173.758442331265 L 182.60991715761273 178.56467300620494 Z" style="stroke:violet;fill:violet;stroke-linecap:butt;stroke-linejoin:miter;" /><path d="M 434.15999999999997,213.83999999999997 L 434.15999999999997,194.39999999999998 L 434.15999999999997,183.06" style="stroke:violet;fill:none;stroke-width:2;stroke-linecap:round;stroke-linejoin:round;" /><path d="M 434.15999999999997 176.96 L 436.59 183.06000000000003 L 431.72999999999996 183.06000000000003 Z" style="stroke:violet;fill:violet;stroke-linecap:butt;stroke-linejoin:miter;" /><path d="M 563.7599999999999,213.83999999999997 L 434.1599999999999,194.39999999999998 L 312.5703844582332,176.16155766873499" style="stroke:red;fill:none;stroke-width:2;stroke-linecap:round;stroke-linejoin:round;" /><path d="M 306.5378727057366 175.2566809058605 L 312.93085175885375 173.75844233126503 L 312.2099171576127 178.56467300620497 Z" style="stroke:red;fill:red;stroke-linecap:butt;stroke-linejoin:miter;" /><path d="M 563.7599999999999,213.83999999999997 L 304.55999999999995,194.39999999999992 L 53.43731441009645,175.56579858075713" style="stroke:red;fill:none;stroke-width:2;stroke-linecap:round;stroke-linejoin:round;" /><path d="M 47.35439861977686 175.10957989648315 L 53.619053984323614 173.1426042577282 L 53.255574835869275 177.98899290378608 Z" style="stroke:red;fill:red;stroke-linecap:butt;stroke-linejoin:miter;" /><path d="M 563.7599999999999,213.83999999999997 L 369.35999999999996,194.39999999999998 L 183.0198012407009,175.7659801240701" style="stroke:red;fill:none;stroke-width:2;stroke-linecap:round;stroke-linejoin:round;" /><path d="M 176.95007438041998 175.159007438042 L 183.26159527792194 173.34803975185983 L 182.7780072034799 178.1839204962804 Z" style="stroke:red;fill:red;stroke-linecap:butt;stroke-linejoin:miter;" /><path d="M 563.7599999999999,213.83999999999997 L 498.9599999999999,194.39999999999998 L 441.91839291029135,177.2875178730874" style="stroke:red;fill:none;stroke-width:2;stroke-linecap:round;stroke-linejoin:round;" /><path d="M 436.0756525704423 175.53469577113273 L 442.61664827221756 174.96000000000004 L 441.2201375483651 179.61503574617484 Z" style="stroke:red;fill:red;stroke-linecap:butt;stroke-linejoin:miter;" /><path d="M 822.9599999999999,213.83999999999997 L 563.7599999999999,194.39999999999992 L 312.63731441009645,175.56579858075713" style="stroke:yellow;fill:none;stroke-width:2;stroke-linecap:round;stroke-linejoin:round;" /><path d="M 306.55439861977686 175.10957989648315 L 312.8190539843236 173.1426042577282 L 312.4555748358693 177.98899290378608 Z" style="stroke:yellow;fill:yellow;stroke-linecap:butt;stroke-linejoin:miter;" /><path d="M 822.9599999999999,213.83999999999997 L 434.1599999999999,194.40000000000006 L 53.44989394491049,175.36449469724562" style="stroke:yellow;fill:none;stroke-width:2;stroke-linecap:round;stroke-linejoin:round;" /><path d="M 47.35750467775564 175.05987523388788 L 53.57124235408415 172.93752651377247 L 53.328545535736836 177.79146288071877 Z" style="stroke:yellow;fill:yellow;stroke-linecap:butt;stroke-linejoin:miter;" /><path d="M 822.9599999999999,213.83999999999997 L 498.95999999999987,194.40000000000003 L 183.04545924827264,175.44512755489643" style="stroke:yellow;fill:none;stroke-width:2;stroke-linecap:round;stroke-linejoin:round;" /><path d="M 176.9564096909314 175.07978458145595 L 183.19099751474155 173.0194897804146 L 182.89992098180372 177.8707653293783 Z" style="stroke:yellow;fill:yellow;stroke-linecap:butt;stroke-linejoin:miter;" /><path d="M 822.9599999999999,213.83999999999997 L 628.56,194.39999999999998 L 442.2198012407009,175.7659801240701" style="stroke:yellow;fill:none;stroke-width:2;stroke-linecap:round;stroke-linejoin:round;" /><path d="M 436.15007438041994 175.159007438042 L 442.4615952779219 173.34803975185983 L 441.9780072034799 178.1839204962804 Z" style="stroke:yellow;fill:yellow;stroke-linecap:butt;stroke-linejoin:miter;" /><path d="M 45.35999999999999,343.44 L 239.76,324.0 L 426.1001987592991,305.3659801240701" style="stroke:green;fill:none;stroke-width:2;stroke-linecap:round;stroke-linejoin:round;" /><path d="M 432.16992561958 304.759007438042 L 426.34199279652006 307.78392049628036 L 425.85840472207803 302.9480397518598 Z" style="stroke:green;fill:green;stroke-linecap:butt;stroke-linejoin:miter;" /><path d="M 45.35999999999999,343.44 L 369.36000000000007,324.0 L 685.2745407517273,305.04512755489634" style="stroke:green;fill:none;stroke-width:2;stroke-linecap:round;stroke-linejoin:round;" /><path d="M 691.3635903090684 304.6797845814559 L 685.4200790181961 307.47076532937825 L 685.1290024852583 302.61948978041454 Z" style="stroke:green;fill:green;stroke-linecap:butt;stroke-linejoin:miter;" /><path d="M 174.96,343.44 L 304.56,324.0 L 426.14961554176676,305.76155766873495" style="stroke:blue;fill:none;stroke-width:2;stroke-linecap:round;stroke-linejoin:round;" /><path d="M 432.18212729426335 304.8566809058605 L 426.51008284238725 308.1646730062049 L 425.7891482411462 303.358442331265 Z" style="stroke:blue;fill:blue;stroke-linecap:butt;stroke-linejoin:miter;" /><path d="M 174.96,343.44 L 498.96000000000004,324.0 L 814.8745407517273,305.04512755489634" style="stroke:blue;fill:none;stroke-width:2;stroke-linecap:round;stroke-linejoin:round;" /><path d="M 820.9635903090685 304.6797845814559 L 815.0200790181963 307.47076532937825 L 814.7290024852584 302.61948978041454 Z" style="stroke:blue;fill:blue;stroke-linecap:butt;stroke-linejoin:miter;" /><path d="M 174.96,343.44 L 239.76,324.0 L 296.8016070897087,306.8875178730874" style="stroke:blue;fill:none;stroke-width:2;stroke-linecap:round;stroke-linejoin:round;" /><path d="M 302.6443474295577 305.13469577113267 L 297.4998624516349 309.21503574617475 L 296.1033517277824 304.56 Z" style="stroke:blue;fill:blue;stroke-linecap:butt;stroke-linejoin:miter;" /><path d="M 434.15999999999997,343.44 L 239.76,324.0 L 53.41980124070092,305.3659801240701" style="stroke:violet;fill:none;stroke-width:2;stroke-linecap:round;stroke-linejoin:round;" /><path d="M 47.35007438041998 304.759007438042 L 53.66159527792195 302.9480397518598 L 53.178007203479886 307.78392049628036 Z" style="stroke:violet;fill:violet;stroke-linecap:butt;stroke-linejoin:miter;" /><path d="M 434.15999999999997,343.44 L 498.96,324.0 L 556.0016070897086,306.8875178730874" style="stroke:violet;fill:none;stroke-width:2;stroke-linecap:round;stroke-linejoin:round;" /><path d="M 561.8443474295576 305.13469577113267 L 556.6998624516348 309.21503574617475 L 555.3033517277823 304.56 Z" style="stroke:violet;fill:violet;stroke-linecap:butt;stroke-linejoin:miter;" /><path d="M 563.7599999999999,343.44 L 304.55999999999995,323.99999999999994 L 53.43731441009645,305.16579858075715" style="stroke:red;fill:none;stroke-width:2;stroke-linecap:round;stroke-linejoin:round;" /><path d="M 47.35439861977686 304.70957989648315 L 53.619053984323614 302.74260425772815 L 53.255574835869275 307.58899290378605 Z" style="stroke:red;fill:red;stroke-linecap:butt;stroke-linejoin:miter;" /><path d="M 693.3599999999999,343.44 L 369.3599999999999,324.0 L 53.44545924827264,305.0451275548964" style="stroke:orange;fill:none;stroke-width:2;stroke-linecap:round;stroke-linejoin:round;" /><path d="M 47.35640969093139 304.679784581456 L 53.59099751474156 302.6194897804146 L 53.29992098180374 307.4707653293783 Z" style="stroke:orange;fill:orange;stroke-linecap:butt;stroke-linejoin:miter;" /><path d="M 693.3599999999999,343.44 L 498.9599999999999,324.0 L 312.61980124070095,305.3659801240701" style="stroke:orange;fill:none;stroke-width:2;stroke-linecap:round;stroke-linejoin:round;" /><path d="M 306.55007438041997 304.759007438042 L 312.86159527792194 302.9480397518598 L 312.3780072034799 307.78392049628036 Z" style="stroke:orange;fill:orange;stroke-linecap:butt;stroke-linejoin:miter;" /><path d="M 822.9599999999999,343.44 L 758.16,324.0 L 701.1183929102912,306.8875178730874" style="stroke:yellow;fill:none;stroke-width:2;stroke-linecap:round;stroke-linejoin:round;" /><path d="M 695.2756525704422 305.13469577113267 L 701.8166482722174 304.56 L 700.420137548365 309.21503574617475 Z" style="stroke:yellow;fill:yellow;stroke-linecap:butt;stroke-linejoin:miter;" /><path d="M 952.56,343.44 L 693.3599999999999,323.99999999999994 L 442.2373144100965,305.16579858075715" style="stroke:yellowgreen;fill:none;stroke-width:2;stroke-linecap:round;stroke-linejoin:round;" /><path d="M 436.1543986197768 304.70957989648315 L 442.41905398432357 302.74260425772815 L 442.05557483586927 307.58899290378605 Z" style="stroke:yellowgreen;fill:yellowgreen;stroke-linecap:butt;stroke-linejoin:miter;" /><path d="M 952.56,343.44 L 822.9599999999999,324.0 L 701.370384458233,305.7615576687349" style="stroke:yellowgreen;fill:none;stroke-width:2;stroke-linecap:round;stroke-linejoin:round;" /><path d="M 695.3378727057365 304.85668090586046 L 701.7308517588535 303.35844233126494 L 701.0099171576126 308.16467300620485 Z" style="stroke:yellowgreen;fill:yellowgreen;stroke-linecap:butt;stroke-linejoin:miter;" /><path d="M 1082.1599999999999,343.44 L 887.7599999999999,324.0 L 701.4198012407008,305.3659801240701" style="stroke:green;fill:none;stroke-width:2;stroke-linecap:round;stroke-linejoin:round;" /><path d="M 695.3500743804199 304.759007438042 L 701.6615952779218 302.9480397518598 L 701.1780072034798 307.78392049628036 Z" style="stroke:green;fill:green;stroke-linecap:butt;stroke-linejoin:miter;" /><path d="M 1211.76,343.44 L 952.56,324.00000000000006 L 701.4373144100964,305.1657985807574" style="stroke:blue;fill:none;stroke-width:2;stroke-linecap:round;stroke-linejoin:round;" /><path d="M 695.3543986197768 304.7095798964834 L 701.6190539843236 302.7426042577284 L 701.2555748358692 307.5889929037863 Z" style="stroke:blue;fill:blue;stroke-linecap:butt;stroke-linejoin:miter;" /><path d="M 1341.36,343.44 L 1017.3599999999999,324.0 L 701.4454592482726,305.0451275548964" style="stroke:indigo;fill:none;stroke-width:2;stroke-linecap:round;stroke-linejoin:round;" /><path d="M 695.3564096909314 304.679784581456 L 701.5909975147415 302.6194897804146 L 701.2999209818037 307.4707653293783 Z" style="stroke:indigo;fill:indigo;stroke-linecap:butt;stroke-linejoin:miter;" /><path d="M 174.96,473.03999999999996 L 110.16000000000001,453.59999999999997 L 53.118392910291334,436.4875178730874" style="stroke:red;fill:none;stroke-width:2;stroke-linecap:round;stroke-linejoin:round;" /><path d="M 47.27565257044231 434.73469577113264 L 53.81664827221755 434.15999999999997 L 52.42013754836511 438.8150357461747 Z" style="stroke:red;fill:red;stroke-linecap:butt;stroke-linejoin:miter;" /><path d="M 174.96,473.03999999999996 L 628.5600000000001,453.59999999999997 L 1074.067428543877,434.5068244909767" style="stroke:red;fill:none;stroke-width:2;stroke-linecap:round;stroke-linejoin:round;" /><path d="M 1080.1618342083648 434.24563567678433 L 1074.17147589117 436.93459592781363 L 1073.963381196584 432.0790530541397 Z" style="stroke:red;fill:red;stroke-linecap:butt;stroke-linejoin:miter;" /><path d="M 304.56,473.03999999999996 L 369.36,453.59999999999997 L 426.40160708970865,436.4875178730874" style="stroke:orange;fill:none;stroke-width:2;stroke-linecap:round;stroke-linejoin:round;" /><path d="M 432.24434742955765 434.73469577113264 L 427.09986245163486 438.8150357461747 L 425.7033517277824 434.15999999999997 Z" style="stroke:orange;fill:orange;stroke-linecap:butt;stroke-linejoin:miter;" /><path d="M 304.56,473.03999999999996 L 693.3599999999999,453.59999999999997 L 1074.0701060550894,434.56449469724555" style="stroke:orange;fill:none;stroke-width:2;stroke-linecap:round;stroke-linejoin:round;" /><path d="M 1080.1624953222442 434.2598752338877 L 1074.191454464263 436.9914628807187 L 1073.9487576459155 432.13752651377234 Z" style="stroke:orange;fill:orange;stroke-linecap:butt;stroke-linejoin:miter;" /><path d="M 434.15999999999997,473.03999999999996 L 239.76,453.59999999999997 L 53.41980124070092,434.9659801240701" style="stroke:yellow;fill:none;stroke-width:2;stroke-linecap:round;stroke-linejoin:round;" /><path d="M 47.35007438041998 434.35900743804194 L 53.66159527792195 432.5480397518598 L 53.178007203479886 437.3839204962803 Z" style="stroke:yellow;fill:yellow;stroke-linecap:butt;stroke-linejoin:miter;" /><path d="M 434.15999999999997,473.03999999999996 L 758.1600000000001,453.59999999999997 L 1074.0745407517272,434.64512755489636" style="stroke:yellow;fill:none;stroke-width:2;stroke-linecap:round;stroke-linejoin:round;" /><path d="M 1080.1635903090685 434.2797845814559 L 1074.2200790181962 437.0707653293782 L 1073.9290024852583 432.2194897804145 Z" style="stroke:yellow;fill:yellow;stroke-linecap:butt;stroke-linejoin:miter;" /><path d="M 693.3599999999999,473.03999999999996 L 1017.3599999999999,453.59999999999997 L 1333.2745407517273,434.64512755489636" style="stroke:green;fill:none;stroke-width:2;stroke-linecap:round;stroke-linejoin:round;" /><path d="M 1339.3635903090685 434.2797845814559 L 1333.4200790181962 437.0707653293782 L 1333.1290024852583 432.2194897804145 Z" style="stroke:green;fill:green;stroke-linecap:butt;stroke-linejoin:miter;" /><path d="M 822.9599999999999,473.03999999999996 L 434.1599999999999,453.6 L 53.44989394491049,434.56449469724566" style="stroke:blue;fill:none;stroke-width:2;stroke-linecap:round;stroke-linejoin:round;" /><path d="M 47.35750467775564 434.25987523388784 L 53.57124235408415 432.13752651377246 L 53.328545535736836 436.9914628807188 Z" style="stroke:blue;fill:blue;stroke-linecap:butt;stroke-linejoin:miter;" /><path d="M 952.56,473.03999999999996 L 758.16,453.59999999999997 L 571.8198012407008,434.9659801240701" style="stroke:indigo;fill:none;stroke-width:2;stroke-linecap:round;stroke-linejoin:round;" /><path d="M 565.7500743804198 434.35900743804194 L 572.0615952779218 432.5480397518598 L 571.5780072034797 437.3839204962803 Z" style="stroke:indigo;fill:indigo;stroke-linecap:butt;stroke-linejoin:miter;" /><path d="M 1082.1599999999999,473.03999999999996 L 822.9599999999999,453.6 L 571.8373144100965,434.76579858075735" style="stroke:violet;fill:none;stroke-width:2;stroke-linecap:round;stroke-linejoin:round;" /><path d="M 565.7543986197768 434.30957989648334 L 572.0190539843236 432.34260425772834 L 571.6555748358692 437.18899290378624 Z" style="stroke:violet;fill:violet;stroke-linecap:butt;stroke-linejoin:miter;" /><path d="M 1211.76,473.03999999999996 L 887.7599999999999,453.59999999999997 L 571.8454592482726,434.6451275548964" style="stroke:red;fill:none;stroke-width:2;stroke-linecap:round;stroke-linejoin:round;" /><path d="M 565.7564096909314 434.27978458145594 L 571.9909975147415 432.21948978041456 L 571.6999209818036 437.0707653293783 Z" style="stroke:red;fill:red;stroke-linecap:butt;stroke-linejoin:miter;" /><path d="M 1470.9599999999998,473.03999999999996 L 1406.1599999999999,453.59999999999997 L 1349.1183929102913,436.4875178730874" style="stroke:yellow;fill:none;stroke-width:2;stroke-linecap:round;stroke-linejoin:round;" /><path d="M 1343.2756525704422 434.73469577113264 L 1349.8166482722174 434.15999999999997 L 1348.420137548365 438.8150357461747 Z" style="stroke:yellow;fill:yellow;stroke-linecap:butt;stroke-linejoin:miter;" /><path d="M 1600.56,473.03999999999996 L 822.9599999999998,453.6000000000001 L 53.45746993590552,434.36243674839784" style="stroke:yellowgreen;fill:none;stroke-width:2;stroke-linecap:round;stroke-linejoin:round;" /><path d="M 47.35937529281597 434.2099843823206 L 53.51820096042481 431.9331957676261 L 53.39673891138622 436.7916777291696 Z" style="stroke:yellowgreen;fill:yellowgreen;stroke-linecap:butt;stroke-linejoin:miter;" /><text x="45.35999999999999" y="121.89999999999999" fill="black" font-size="14" font-family="sans-serif" text-anchor="middle" transform="rotate(0 45.35999999999999 127.49999999999999)"><tspan x="45.35999999999999" dy="11.200000000000001">CS1110</tspan></text><text x="174.96" y="121.89999999999999" fill="black" font-size="14" font-family="sans-serif" text-anchor="middle" transform="rotate(0 174.96 127.49999999999999)"><tspan x="174.96" dy="11.200000000000001">CS1111</tspan></text><text x="304.56" y="121.89999999999999" fill="black" font-size="14" font-family="sans-serif" text-anchor="middle" transform="rotate(0 304.56 127.49999999999999)"><tspan x="304.56" dy="11.200000000000001">CS1112</tspan></text><text x="434.15999999999997" y="121.89999999999999" fill="black" font-size="14" font-family="sans-serif" text-anchor="middle" transform="rotate(0 434.15999999999997 127.49999999999999)"><tspan x="434.15999999999997" dy="11.200000000000001">CS1113</tspan></text><text x="45.35999999999999" y="251.5" fill="black" font-size="14" font-family="sans-serif" text-anchor="middle" transform="rotate(0 45.35999999999999 257.09999999999997)"><tspan x="45.35999999999999" dy="11.200000000000001">CS2100</tspan></text><text x="45.35999999999999" y="275.92" fill="black" font-size="8" font-family="sans-serif" text-anchor="middle" transform="rotate(0 45.35999999999999 283.92)"><tspan x="45.35999999999999" dy="8">CS1112, CS1110, CS1111, </tspan><tspan x="45.35999999999999" dy="8">CS1113, CS2100, </tspan></text><text x="174.96" y="251.5" fill="black" font-size="14" font-family="sans-serif" text-anchor="middle" transform="rotate(0 174.96 257.09999999999997)"><tspan x="174.96" dy="11.200000000000001">CS2102</tspan></text><text x="304.56" y="251.5" fill="black" font-size="14" font-family="sans-serif" text-anchor="middle" transform="rotate(0 304.56 257.09999999999997)"><tspan x="304.56" dy="11.200000000000001">CS2110</tspan></text><text x="434.15999999999997" y="251.5" fill="black" font-size="14" font-family="sans-serif" text-anchor="middle" transform="rotate(0 434.15999999999997 257.09999999999997)"><tspan x="434.15999999999997" dy="11.200000000000001">CS2120</tspan></text><text x="434.15999999999997" y="275.92" fill="black" font-size="8" font-family="sans-serif" text-anchor="middle" transform="rotate(0 434.15999999999997 283.92)"><tspan x="434.15999999999997" dy="8">CS1112, CS1110, CS1111, </tspan><tspan x="434.15999999999997" dy="8">CS1113, CS2100, </tspan></text><text x="563.7599999999999" y="251.5" fill="black" font-size="14" font-family="sans-serif" text-anchor="middle" transform="rotate(0 563.7599999999999 257.09999999999997)"><tspan x="563.7599999999999" dy="11.200000000000001">CS2130</tspan></text><text x="563.7599999999999" y="275.92" fill="black" font-size="8" font-family="sans-serif" text-anchor="middle" transform="rotate(0 563.7599999999999 283.92)"><tspan x="563.7599999999999" dy="8">CS1112, CS1110, CS1111, </tspan><tspan x="563.7599999999999" dy="8">CS1113, CS2100, </tspan></text><text x="693.3599999999999" y="251.5" fill="black" font-size="14" font-family="sans-serif" text-anchor="middle" transform="rotate(0 693.3599999999999 257.09999999999997)"><tspan x="693.3599999999999" dy="11.200000000000001">CS2150</tspan></text><text x="693.3599999999999" y="280.72" fill="black" font-size="8" font-family="sans-serif" text-anchor="middle" transform="rotate(0 693.3599999999999 283.92)"><tspan x="693.3599999999999" dy="6.4">CS2102, CS2110,</tspan></text><text x="822.9599999999999" y="251.5" fill="black" font-size="14" font-family="sans-serif" text-anchor="middle" transform="rotate(0 822.9599999999999 257.09999999999997)"><tspan x="822.9599999999999" dy="11.200000000000001">CS2501</tspan></text><text x="822.9599999999999" y="275.92" fill="black" font-size="8" font-family="sans-serif" text-anchor="middle" transform="rotate(0 822.9599999999999 283.92)"><tspan x="822.9599999999999" dy="8">CS1112, CS1110, CS1111, </tspan><tspan x="822.9599999999999" dy="8">CS1113, CS2100, </tspan></text><text x="952.56" y="251.5" fill="black" font-size="14" font-family="sans-serif" text-anchor="middle" transform="rotate(0 952.56 257.09999999999997)"><tspan x="952.56" dy="11.200000000000001">CS2910</tspan></text><text x="952.56" y="280.72" fill="black" font-size="8" font-family="sans-serif" text-anchor="middle" transform="rotate(0 952.56 283.92)"><tspan x="952.56" dy="6.4">CS2102, CS2110,</tspan></text><text x="45.35999999999999" y="381.1" fill="black" font-size="14" font-family="sans-serif" text-anchor="middle" transform="rotate(0 45.35999999999999 386.7)"><tspan x="45.35999999999999" dy="11.200000000000001">CS3100</tspan></text><text x="45.35999999999999" y="410.32000000000005" fill="black" font-size="8" font-family="sans-serif" text-anchor="middle" transform="rotate(0 45.35999999999999 413.52000000000004)"><tspan x="45.35999999999999" dy="6.4">CS2120, CS2150,</tspan></text><text x="174.96" y="381.1" fill="black" font-size="14" font-family="sans-serif" text-anchor="middle" transform="rotate(0 174.96 386.7)"><tspan x="174.96" dy="11.200000000000001">CS3102</tspan></text><text x="174.96" y="410.32000000000005" fill="black" font-size="8" font-family="sans-serif" text-anchor="middle" transform="rotate(0 174.96 413.52000000000004)"><tspan x="174.96" dy="6.4">CS2120, CS2501, CS2110, </tspan></text><text x="304.56" y="381.1" fill="black" font-size="14" font-family="sans-serif" text-anchor="middle" transform="rotate(0 304.56 386.7)"><tspan x="304.56" dy="11.200000000000001">CS3120</tspan></text><text x="304.56" y="410.32000000000005" fill="black" font-size="8" font-family="sans-serif" text-anchor="middle" transform="rotate(0 304.56 413.52000000000004)"><tspan x="304.56" dy="6.4">CS3100, CS4102,</tspan></text><text x="434.15999999999997" y="381.1" fill="black" font-size="14" font-family="sans-serif" text-anchor="middle" transform="rotate(0 434.15999999999997 386.7)"><tspan x="434.15999999999997" dy="11.200000000000001">CS3130</tspan></text><text x="434.15999999999997" y="410.32000000000005" fill="black" font-size="8" font-family="sans-serif" text-anchor="middle" transform="rotate(0 434.15999999999997 413.52000000000004)"><tspan x="434.15999999999997" dy="6.4">CS2100, CS2130,</tspan></text><text x="563.7599999999999" y="381.1" fill="black" font-size="14" font-family="sans-serif" text-anchor="middle" transform="rotate(0 563.7599999999999 386.7)"><tspan x="563.7599999999999" dy="11.200000000000001">CS3140</tspan></text><text x="563.7599999999999" y="410.32000000000005" fill="black" font-size="8" font-family="sans-serif" text-anchor="middle" transform="rotate(0 563.7599999999999 413.52000000000004)"><tspan x="563.7599999999999" dy="6.4">CS2100,</tspan></text><text x="693.3599999999999" y="381.1" fill="black" font-size="14" font-family="sans-serif" text-anchor="middle" transform="rotate(0 693.3599999999999 386.7)"><tspan x="693.3599999999999" dy="11.200000000000001">CS3205</tspan></text><text x="693.3599999999999" y="410.32000000000005" fill="black" font-size="8" font-family="sans-serif" text-anchor="middle" transform="rotate(0 693.3599999999999 413.52000000000004)"><tspan x="693.3599999999999" dy="6.4">CS2100, CS2110,</tspan></text><text x="822.9599999999999" y="381.1" fill="black" font-size="14" font-family="sans-serif" text-anchor="middle" transform="rotate(0 822.9599999999999 386.7)"><tspan x="822.9599999999999" dy="11.200000000000001">CS3240</tspan></text><text x="822.9599999999999" y="410.32000000000005" fill="black" font-size="8" font-family="sans-serif" text-anchor="middle" transform="rotate(0 822.9599999999999 413.52000000000004)"><tspan x="822.9599999999999" dy="6.4">CS3140, CS2150,</tspan></text><text x="952.56" y="381.1" fill="black" font-size="14" font-family="sans-serif" text-anchor="middle" transform="rotate(0 952.56 386.7)"><tspan x="952.56" dy="11.200000000000001">CS3250</tspan></text><text x="952.56" y="410.32000000000005" fill="black" font-size="8" font-family="sans-serif" text-anchor="middle" transform="rotate(0 952.56 413.52000000000004)"><tspan x="952.56" dy="6.4">CS2120, CS2150,</tspan></text><text x="1082.1599999999999" y="381.1" fill="black" font-size="14" font-family="sans-serif" text-anchor="middle" transform="rotate(0 1082.1599999999999 386.7)"><tspan x="1082.1599999999999" dy="11.200000000000001">CS3330</tspan></text><text x="1082.1599999999999" y="410.32000000000005" fill="black" font-size="8" font-family="sans-serif" text-anchor="middle" transform="rotate(0 1082.1599999999999 413.52000000000004)"><tspan x="1082.1599999999999" dy="6.4">CS3130, CS2150,</tspan></text><text x="1211.76" y="381.1" fill="black" font-size="14" font-family="sans-serif" text-anchor="middle" transform="rotate(0 1211.76 386.7)"><tspan x="1211.76" dy="11.200000000000001">CS3501</tspan></text><text x="1211.76" y="410.32000000000005" fill="black" font-size="8" font-family="sans-serif" text-anchor="middle" transform="rotate(0 1211.76 413.52000000000004)"><tspan x="1211.76" dy="6.4">CS3130, CS2150,</tspan></text><text x="1341.36" y="381.1" fill="black" font-size="14" font-family="sans-serif" text-anchor="middle" transform="rotate(0 1341.36 386.7)"><tspan x="1341.36" dy="11.200000000000001">CS3710</tspan></text><text x="1341.36" y="410.32000000000005" fill="black" font-size="8" font-family="sans-serif" text-anchor="middle" transform="rotate(0 1341.36 413.52000000000004)"><tspan x="1341.36" dy="6.4">CS3140, CS2150,</tspan></text><text x="45.35999999999999" y="510.7" fill="black" font-size="14" font-family="sans-serif" text-anchor="middle" transform="rotate(0 45.35999999999999 516.3)"><tspan x="45.35999999999999" dy="11.200000000000001">CS4102</tspan></text><text x="174.96" y="510.7" fill="black" font-size="14" font-family="sans-serif" text-anchor="middle" transform="rotate(0 174.96 516.3)"><tspan x="174.96" dy="11.200000000000001">CS4414</tspan></text><text x="174.96" y="539.9200000000001" fill="black" font-size="8" font-family="sans-serif" text-anchor="middle" transform="rotate(0 174.96 543.12)"><tspan x="174.96" dy="6.4">CS3100, CS3330, CS2150, </tspan></text><text x="304.56" y="510.7" fill="black" font-size="14" font-family="sans-serif" text-anchor="middle" transform="rotate(0 304.56 516.3)"><tspan x="304.56" dy="11.200000000000001">CS4457</tspan></text><text x="304.56" y="539.9200000000001" fill="black" font-size="8" font-family="sans-serif" text-anchor="middle" transform="rotate(0 304.56 543.12)"><tspan x="304.56" dy="6.4">CS3130, CS2501, CS3330, </tspan></text><text x="434.15999999999997" y="510.7" fill="black" font-size="14" font-family="sans-serif" text-anchor="middle" transform="rotate(0 434.15999999999997 516.3)"><tspan x="434.15999999999997" dy="11.200000000000001">CS4501</tspan></text><text x="434.15999999999997" y="539.9200000000001" fill="black" font-size="8" font-family="sans-serif" text-anchor="middle" transform="rotate(0 434.15999999999997 543.12)"><tspan x="434.15999999999997" dy="6.4">CS3100, CS3330, CS2150, </tspan></text><text x="563.7599999999999" y="510.7" fill="black" font-size="14" font-family="sans-serif" text-anchor="middle" transform="rotate(0 563.7599999999999 516.3)"><tspan x="563.7599999999999" dy="11.200000000000001">CS4620</tspan></text><text x="563.7599999999999" y="539.9200000000001" fill="black" font-size="8" font-family="sans-serif" text-anchor="middle" transform="rotate(0 563.7599999999999 543.12)"><tspan x="563.7599999999999" dy="6.4">CS2150,</tspan></text><text x="693.3599999999999" y="510.7" fill="black" font-size="14" font-family="sans-serif" text-anchor="middle" transform="rotate(0 693.3599999999999 516.3)"><tspan x="693.3599999999999" dy="11.200000000000001">CS4630</tspan></text><text x="693.3599999999999" y="539.9200000000001" fill="black" font-size="8" font-family="sans-serif" text-anchor="middle" transform="rotate(0 693.3599999999999 543.12)"><tspan x="693.3599999999999" dy="6.4">CS3710,</tspan></text><text x="822.9599999999999" y="510.7" fill="black" font-size="14" font-family="sans-serif" text-anchor="middle" transform="rotate(0 822.9599999999999 516.3)"><tspan x="822.9599999999999" dy="11.200000000000001">CS4710</tspan></text><text x="822.9599999999999" y="539.9200000000001" fill="black" font-size="8" font-family="sans-serif" text-anchor="middle" transform="rotate(0 822.9599999999999 543.12)"><tspan x="822.9599999999999" dy="6.4">CS3100, CS2150,</tspan></text><text x="952.56" y="510.7" fill="black" font-size="14" font-family="sans-serif" text-anchor="middle" transform="rotate(0 952.56 516.3)"><tspan x="952.56" dy="11.200000000000001">CS4720</tspan></text><text x="952.56" y="539.9200000000001" fill="black" font-size="8" font-family="sans-serif" text-anchor="middle" transform="rotate(0 952.56 543.12)"><tspan x="952.56" dy="6.4">CS3140, CS2150,</tspan></text><text x="1082.1599999999999" y="510.7" fill="black" font-size="14" font-family="sans-serif" text-anchor="middle" transform="rotate(0 1082.1599999999999 516.3)"><tspan x="1082.1599999999999" dy="11.200000000000001">CS4730</tspan></text><text x="1082.1599999999999" y="539.9200000000001" fill="black" font-size="8" font-family="sans-serif" text-anchor="middle" transform="rotate(0 1082.1599999999999 543.12)"><tspan x="1082.1599999999999" dy="6.4">CS3140, CS2150,</tspan></text><text x="1211.76" y="510.7" fill="black" font-size="14" font-family="sans-serif" text-anchor="middle" transform="rotate(0 1211.76 516.3)"><tspan x="1211.76" dy="11.200000000000001">CS4740</tspan></text><text x="1211.76" y="539.9200000000001" fill="black" font-size="8" font-family="sans-serif" text-anchor="middle" transform="rotate(0 1211.76 543.12)"><tspan x="1211.76" dy="6.4">CS3140, CS2150,</tspan></text><text x="1341.36" y="510.7" fill="black" font-size="14" font-family="sans-serif" text-anchor="middle" transform="rotate(0 1341.36 516.3)"><tspan x="1341.36" dy="11.200000000000001">CS4750</tspan></text><text x="1341.36" y="539.9200000000001" fill="black" font-size="8" font-family="sans-serif" text-anchor="middle" transform="rotate(0 1341.36 543.12)"><tspan x="1341.36" dy="6.4">CS2150,</tspan></text><text x="1470.9599999999998" y="510.7" fill="black" font-size="14" font-family="sans-serif" text-anchor="middle" transform="rotate(0 1470.9599999999998 516.3)"><tspan x="1470.9599999999998" dy="11.200000000000001">CS4760</tspan></text><text x="1470.9599999999998" y="539.9200000000001" fill="black" font-size="8" font-family="sans-serif" text-anchor="middle" transform="rotate(0 1470.9599999999998 543.12)"><tspan x="1470.9599999999998" dy="6.4">CS3710,</tspan></text><text x="1600.56" y="510.7" fill="black" font-size="14" font-family="sans-serif" text-anchor="middle" transform="rotate(0 1600.56 516.3)"><tspan x="1600.56" dy="11.200000000000001">CS4774</tspan></text><text x="1600.56" y="539.9200000000001" fill="black" font-size="8" font-family="sans-serif" text-anchor="middle" transform="rotate(0 1600.56 543.12)"><tspan x="1600.56" dy="6.4">CS3100, CS2150,</tspan></text><text x="1730.1599999999999" y="510.7" fill="black" font-size="14" font-family="sans-serif" text-anchor="middle" transform="rotate(0 1730.1599999999999 516.3)"><tspan x="1730.1599999999999" dy="11.200000000000001">CS4980</tspan></text><text x="1730.1599999999999" y="539.9200000000001" fill="black" font-size="8" font-family="sans-serif" text-anchor="middle" transform="rotate(0 1730.1599999999999 543.12)"><tspan x="1730.1599999999999" dy="6.4">CS2501, CS2150,</tspan></text><text x="1859.7599999999998" y="510.7" fill="black" font-size="14" font-family="sans-serif" text-anchor="middle" transform="rotate(0 1859.7599999999998 516.3)"><tspan x="1859.7599999999998" dy="11.200000000000001">CS4998</tspan></text><text x="1859.7599999999998" y="539.9200000000001" fill="black" font-size="8" font-family="sans-serif" text-anchor="middle" transform="rotate(0 1859.7599999999998 543.12)"><tspan x="1859.7599999999998" dy="6.4">CS2501, CS2150,</tspan></text><text x="45.35999999999999" y="769.9" fill="black" font-size="14" font-family="sans-serif" text-anchor="middle" transform="rotate(0 45.35999999999999 775.5)"><tspan x="45.35999999999999" dy="11.200000000000001">CS6111</tspan></text><text x="45.35999999999999" y="799.12" fill="black" font-size="8" font-family="sans-serif" text-anchor="middle" transform="rotate(0 45.35999999999999 802.3199999999999)"><tspan x="45.35999999999999" dy="6.4">CS2501, CS2150,</tspan></text><text x="174.96" y="769.9" fill="black" font-size="14" font-family="sans-serif" text-anchor="middle" transform="rotate(0 174.96 775.5)"><tspan x="174.96" dy="11.200000000000001">CS6161</tspan></text><text x="174.96" y="799.12" fill="black" font-size="8" font-family="sans-serif" text-anchor="middle" transform="rotate(0 174.96 802.3199999999999)"><tspan x="174.96" dy="6.4">CS2501, CS2150,</tspan></text><text x="304.56" y="769.9" fill="black" font-size="14" font-family="sans-serif" text-anchor="middle" transform="rotate(0 304.56 775.5)"><tspan x="304.56" dy="11.200000000000001">CS6190</tspan></text><text x="304.56" y="799.12" fill="black" font-size="8" font-family="sans-serif" text-anchor="middle" transform="rotate(0 304.56 802.3199999999999)"><tspan x="304.56" dy="6.4">CS2501, CS2150,</tspan></text><text x="434.15999999999997" y="769.9" fill="black" font-size="14" font-family="sans-serif" text-anchor="middle" transform="rotate(0 434.15999999999997 775.5)"><tspan x="434.15999999999997" dy="11.200000000000001">CS6316</tspan></text><text x="434.15999999999997" y="799.12" fill="black" font-size="8" font-family="sans-serif" text-anchor="middle" transform="rotate(0 434.15999999999997 802.3199999999999)"><tspan x="434.15999999999997" dy="6.4">CS2501, CS2150,</tspan></text><text x="563.7599999999999" y="769.9" fill="black" font-size="14" font-family="sans-serif" text-anchor="middle" transform="rotate(0 563.7599999999999 775.5)"><tspan x="563.7599999999999" dy="11.200000000000001">CS6354</tspan></text><text x="563.7599999999999" y="799.12" fill="black" font-size="8" font-family="sans-serif" text-anchor="middle" transform="rotate(0 563.7599999999999 802.3199999999999)"><tspan x="563.7599999999999" dy="6.4">CS2501, CS2150,</tspan></text><text x="693.3599999999999" y="769.9" fill="black" font-size="14" font-family="sans-serif" text-anchor="middle" transform="rotate(0 693.3599999999999 775.5)"><tspan x="693.3599999999999" dy="11.200000000000001">CS6465</tspan></text><text x="693.3599999999999" y="799.12" fill="black" font-size="8" font-family="sans-serif" text-anchor="middle" transform="rotate(0 693.3599999999999 802.3199999999999)"><tspan x="693.3599999999999" dy="6.4">CS2501, CS2150,</tspan></text><text x="822.9599999999999" y="769.9" fill="black" font-size="14" font-family="sans-serif" text-anchor="middle" transform="rotate(0 822.9599999999999 775.5)"><tspan x="822.9599999999999" dy="11.200000000000001">CS6501</tspan></text><text x="822.9599999999999" y="799.12" fill="black" font-size="8" font-family="sans-serif" text-anchor="middle" transform="rotate(0 822.9599999999999 802.3199999999999)"><tspan x="822.9599999999999" dy="6.4">CS2501, CS2150,</tspan></text><text x="952.56" y="769.9" fill="black" font-size="14" font-family="sans-serif" text-anchor="middle" transform="rotate(0 952.56 775.5)"><tspan x="952.56" dy="11.200000000000001">CS6620</tspan></text><text x="952.56" y="799.12" fill="black" font-size="8" font-family="sans-serif" text-anchor="middle" transform="rotate(0 952.56 802.3199999999999)"><tspan x="952.56" dy="6.4">CS2501, CS2150,</tspan></text><text x="1082.1599999999999" y="769.9" fill="black" font-size="14" font-family="sans-serif" text-anchor="middle" transform="rotate(0 1082.1599999999999 775.5)"><tspan x="1082.1599999999999" dy="11.200000000000001">CS6763</tspan></text><text x="1082.1599999999999" y="799.12" fill="black" font-size="8" font-family="sans-serif" text-anchor="middle" transform="rotate(0 1082.1599999999999 802.3199999999999)"><tspan x="1082.1599999999999" dy="6.4">CS2501, CS2150,</tspan></text><text x="1211.76" y="769.9" fill="black" font-size="14" font-family="sans-serif" text-anchor="middle" transform="rotate(0 1211.76 775.5)"><tspan x="1211.76" dy="11.200000000000001">CS6888</tspan></text><text x="1211.76" y="799.12" fill="black" font-size="8" font-family="sans-serif" text-anchor="middle" transform="rotate(0 1211.76 802.3199999999999)"><tspan x="1211.76" dy="6.4">CS2501, CS2150,</tspan></text></svg>