<svg xmlns="http://www.w3.org/2000/svg" xml:lang="en" height="2207.2pt" width="1871.3631999999998pt" viewBox="-215.83999999999997 127.6 1871.3631999999998 2207.2"><circle cx="45.35999999999999" cy="259.2" r="45.35999999999999" style="stroke:black;fill:lightblue;stroke-width:2;" /><circle cx="304.56" cy="259.2" r="45.35999999999999" style="stroke:black;fill:lightblue;stroke-width:2;" /><circle cx="563.7599999999999" cy="259.2" r="45.35999999999999" style="stroke:black;fill:lightblue;stroke-width:2;" /><circle cx="822.9599999999999" cy="259.2" r="45.35999999999999" style="stroke:black;fill:lightblue;stroke-width:2;" /><circle cx="45.35999999999999" cy="518.4" r="45.35999999999999" style="stroke:black;fill:lightblue;stroke-width:2;" /><circle cx="45.35999999999999" cy="777.5999999999999" r="45.35999999999999" style="stroke:black;fill:lightblue;stroke-width:2;" /><circle cx="304.56" cy="777.5999999999999" r="45.35999999999999" style="stroke:black;fill:lightblue;stroke-width:2;" /><circle cx="563.7599999999999" cy="777.5999999999999" r="45.35999999999999" style="stroke:black;fill:lightblue;stroke-width:2;" /><circle cx="822.9599999999999" cy="777.5999999999999" r="45.35999999999999" style="stroke:black;fill:lightblue;stroke-width:2;" /><circle cx="1082.1599999999999" cy="777.5999999999999" r="45.35999999999999" style="stroke:black;fill:lightblue;stroke-width:2;" /><circle cx="1341.36" cy="777.5999999999999" r="45.35999999999999" style="stroke:black;fill:lightblue;stroke-width:2;" /><circle cx="45.35999999999999" cy="1036.8" r="45.35999999999999" style="stroke:black;fill:lightblue;stroke-width:2;" /><circle cx="304.56" cy="1036.8" r="45.35999999999999" style="stroke:black;fill:lightblue;stroke-width:2;" /><circle cx="563.7599999999999" cy="1036.8" r="45.35999999999999" style="stroke:black;fill:lightblue;stroke-width:2;" /><circle cx="45.35999999999999" cy="1296.0" r="45.35999999999999" style="stroke:black;fill:lightblue;stroke-width:2;" /><circle cx="304.56" cy="1296.0" r="45.35999999999999" style="stroke:black;fill:lightblue;stroke-width:2;" /><circle cx="563.7599999999999" cy="1296.0" r="45.35999999999999" style="stroke:black;fill:lightblue;stroke-width:2;" /><circle cx="822.9599999999999" cy="1296.0" r="45.35999999999999" style="stroke:black;fill:lightblue;stroke-width:2;" /><circle cx="1082.1599999999999" cy="1296.0" r="45.35999999999999" style="stroke:black;fill:lightblue;stroke-width:2;" /><circle cx="1341.36" cy="1296.0" r="45.35999999999999" style="stroke:black;fill:lightblue;stroke-width:2;" /><circle cx="45.35999999999999" cy="1814.3999999999999" r="45.35999999999999" style="stroke:black;fill:lightblue;stroke-width:2;" /><circle cx="304.56" cy="1814.3999999999999" r="45.35999999999999" style="stroke:black;fill:lightblue;stroke-width:2;" /><circle cx="563.7599999999999" cy="1814.3999999999999" r="45.35999999999999" style="stroke:black;fill:lightblue;stroke-width:2;" /><circle cx="822.9599999999999" cy="1814.3999999999999" r="45.35999999999999" style="stroke:black;fill:lightblue;stroke-width:2;" /><circle cx="1082.1599999999999" cy="1814.3999999999999" r="45.35999999999999" style="stroke:black;fill:lightblue;stroke-width:2;" /><circle cx="1341.36" cy="1814.3999999999999" r="45.35999999999999" style="stroke:black;fill:lightblue;stroke-width:2;" /><circle cx="1600.56" cy="1814.3999999999999" r="45.35999999999999" style="stroke:black;fill:lightblue;stroke-width:2;" /><path d="M 45.35999999999999 732.24 Q 174.96 129.6 773.6405243392575 258.3484998579048" style="stroke:blue;fill:none;stroke-width:2;stroke-linecap:round;" /><path d="M 775.644703377411 258.7795061026691 L 769.1701485932579 259.8726851122551 L 770.1919487637721 255.1213143193642 Z" style="stroke:blue;fill:blue;stroke-linecap:butt;stroke-linejoin:miter;" /><path d="M 304.56 732.24 Q 304.55999999999995 259.2 773.55 259.2" style="stroke:indigo;fill:none;stroke-width:2;stroke-linecap:round;" /><path d="M 775.5999999999999 259.2 L 769.5 261.63 L 769.5 256.77 Z" style="stroke:indigo;fill:indigo;stroke-linecap:butt;stroke-linejoin:miter;" /><path d="M 563.7599999999999 732.24 Q 434.1599999999999 388.79999999999995 773.8108130382494 260.6298818723587" style="stroke:violet;fill:none;stroke-width:2;stroke-linecap:round;" /><path d="M 775.7287965620984 259.90611450486847 L 770.8795551999141 264.33327592176767 L 769.1636969530837 259.7862515676671 Z" style="stroke:violet;fill:violet;stroke-linecap:butt;stroke-linejoin:miter;" /><path d="M 45.35999999999999 991.44 Q 45.35999999999999 259.2 773.55 259.2" style="stroke:yellowgreen;fill:none;stroke-width:2;stroke-linecap:round;" /><path d="M 775.5999999999999 259.2 L 769.5 261.63 L 769.5 256.77 Z" style="stroke:yellowgreen;fill:yellowgreen;stroke-linecap:butt;stroke-linejoin:miter;" /><path d="M 1082.1599999999999 1250.64 Q 822.9599999999999 1036.8 1034.222649033078 780.7240617780873" style="stroke:yellow;fill:none;stroke-width:2;stroke-linecap:round;" /><path d="M 1035.527234090409 779.14274655708 L 1033.5197351330082 785.3945341363278 L 1029.7708609993035 782.3017129760213 Z" style="stroke:yellow;fill:yellow;stroke-linecap:butt;stroke-linejoin:miter;" /><path d="M 1082.1599999999999 1250.64 Q 220.3199999999999 1425.6 46.16574487727425 567.7290395806474" style="stroke:yellow;fill:none;stroke-width:2;stroke-linecap:round;" /><path d="M 45.757898704826765 565.7200195459986 L 49.35291350293703 571.2146322349303 L 44.590066006160065 572.1815260876594 Z" style="stroke:yellow;fill:yellow;stroke-linecap:butt;stroke-linejoin:miter;" /><path d="M 45.35999999999999 1769.04 Q -213.83999999999997 1555.1999999999998 -2.5773509669220327 1299.1240617780873" style="stroke:green;fill:none;stroke-width:2;stroke-linecap:round;" /><path d="M -1.2727659095911275 1297.5427465570801 L -3.2802648669916783 1303.7945341363277 L -7.029139000696453 1300.7017129760213 Z" style="stroke:green;fill:green;stroke-linecap:butt;stroke-linejoin:miter;" /><path d="M 518.4 1814.3999999999999 Q 304.56 2028.24 93.58378246380553 1817.2637824638055" style="stroke:indigo;fill:none;stroke-width:2;stroke-linecap:round;" /><path d="M 92.1342135623731 1815.814213562373 L 98.16583440589436 1818.4092954493276 L 94.72929544932774 1821.8458344058943 Z" style="stroke:indigo;fill:indigo;stroke-linecap:butt;stroke-linejoin:miter;" /><path d="M 822.9599999999999 1769.04 Q 563.7599999999999 1555.1999999999998 775.022649033078 1299.1240617780873" style="stroke:violet;fill:none;stroke-width:2;stroke-linecap:round;" /><path d="M 776.3272340904088 1297.5427465570801 L 774.3197351330082 1303.7945341363277 L 770.5708609993035 1300.7017129760213 Z" style="stroke:violet;fill:violet;stroke-linecap:butt;stroke-linejoin:miter;" /><path d="M 822.9599999999999 1769.04 Q 434.1599999999999 1684.8 517.5423989446265 1299.9581587171085" style="stroke:violet;fill:none;stroke-width:2;stroke-linecap:round;" /><path d="M 517.9764933059884 1297.9546462800536 L 519.0596931195181 1304.4308780674412 L 514.3099026589879 1303.4017568009929 Z" style="stroke:violet;fill:violet;stroke-linecap:butt;stroke-linejoin:miter;" /><path d="M 1082.1599999999999 1769.04 Q 693.3599999999999 1684.8 776.7423989446264 1299.9581587171085" style="stroke:red;fill:none;stroke-width:2;stroke-linecap:round;" /><path d="M 777.1764933059883 1297.9546462800536 L 778.259693119518 1304.4308780674412 L 773.5099026589878 1303.4017568009929 Z" style="stroke:red;fill:red;stroke-linecap:butt;stroke-linejoin:miter;" /><path d="M 1082.1599999999999 1769.04 Q 563.7599999999999 1814.3999999999999 518.7530261486377 1300.0345845558593" style="stroke:red;fill:none;stroke-width:2;stroke-linecap:round;" /><path d="M 518.5743339005618 1297.9923874349922 L 521.5268030307909 1303.8573534225359 L 516.6853015637598 1304.2809848009013 Z" style="stroke:red;fill:red;stroke-linecap:butt;stroke-linejoin:miter;" /><path d="M 1341.36 1769.04 Q 1082.1599999999999 1555.1999999999998 1293.422649033078 1299.1240617780873" style="stroke:orange;fill:none;stroke-width:2;stroke-linecap:round;" /><path d="M 1294.727234090409 1297.5427465570801 L 1292.7197351330083 1303.7945341363277 L 1288.9708609993036 1300.7017129760213 Z" style="stroke:orange;fill:orange;stroke-linecap:butt;stroke-linejoin:miter;" /><path d="M 1341.36 1769.04 Q 609.1199999999999 2073.6 306.11534224462986 1345.0994398647483" style="stroke:orange;fill:none;stroke-width:2;stroke-linecap:round;" /><path d="M 305.3280702442616 1343.206636970246 L 309.9143484081087 1347.9056743827189 L 305.4270205704106 1349.7720850762746 Z" style="stroke:orange;fill:orange;stroke-linecap:butt;stroke-linejoin:miter;" /><path d="M 1600.56 1769.04 Q 1211.76 1684.8 1295.1423989446264 1299.9581587171085" style="stroke:yellow;fill:none;stroke-width:2;stroke-linecap:round;" /><path d="M 1295.5764933059884 1297.9546462800536 L 1296.659693119518 1304.4308780674412 L 1291.9099026589877 1303.4017568009929 Z" style="stroke:yellow;fill:yellow;stroke-linecap:butt;stroke-linejoin:miter;" /><path d="M 1600.56 1769.04 Q 609.1199999999999 2332.7999999999997 47.36192400917815 1344.880624981658" style="stroke:yellow;fill:none;stroke-width:2;stroke-linecap:round;" /><path d="M 46.348604448976836 1343.098580237856 L 51.47622300735127 1347.2000955578094 L 47.25147302936142 1349.602404368823 Z" style="stroke:yellow;fill:yellow;stroke-linecap:butt;stroke-linejoin:miter;" /><path d="M 0.0,285.12 L 0.0,265.68 L 90.71999999999998,265.68 L 90.71999999999998,304.56 L 0.0,304.56 L 0.0,285.12" style="stroke:black;fill:lightblue;stroke-width:2;stroke-linecap:round;stroke-linejoin:round;" /><path d="M 259.2,285.12 L 259.2,265.68 L 349.92,265.68 L 349.92,304.56 L 259.2,304.56 L 259.2,285.12" style="stroke:black;fill:lightblue;stroke-width:2;stroke-linecap:round;stroke-linejoin:round;" /><path d="M 518.4,285.12 L 518.4,265.68 L 609.12,265.68 L 609.12,304.56 L 518.4,304.56 L 518.4,285.12" style="stroke:black;fill:lightblue;stroke-width:2;stroke-linecap:round;stroke-linejoin:round;" /><path d="M 777.5999999999999,285.12 L 777.5999999999999,265.68 L 868.3199999999999,265.68 L 868.3199999999999,304.56 L 777.5999999999999,304.56 L 777.5999999999999,285.12" style="stroke:black;fill:lightblue;stroke-width:2;stroke-linecap:round;stroke-linejoin:round;" /><path d="M 0.0,544.32 L 0.0,524.88 L 90.71999999999998,524.88 L 90.71999999999998,563.76 L 0.0,563.76 L 0.0,544.32" style="stroke:black;fill:lightblue;stroke-width:2;stroke-linecap:round;stroke-linejoin:round;" /><path d="M 0.0,803.52 L 0.0,784.0799999999999 L 90.71999999999998,784.0799999999999 L 90.71999999999998,822.96 L 0.0,822.96 L 0.0,803.52" style="stroke:black;fill:lightblue;stroke-width:2;stroke-linecap:round;stroke-linejoin:round;" /><path d="M 259.2,803.52 L 259.2,784.0799999999999 L 349.92,784.0799999999999 L 349.92,822.96 L 259.2,822.96 L 259.2,803.52" style="stroke:black;fill:lightblue;stroke-width:2;stroke-linecap:round;stroke-linejoin:round;" /><path d="M 518.4,803.52 L 518.4,784.0799999999999 L 609.12,784.0799999999999 L 609.12,822.96 L 518.4,822.96 L 518.4,803.52" style="stroke:black;fill:lightblue;stroke-width:2;stroke-linecap:round;stroke-linejoin:round;" /><path d="M 777.5999999999999,803.52 L 777.5999999999999,784.0799999999999 L 868.3199999999999,784.0799999999999 L 868.3199999999999,822.96 L 777.5999999999999,822.96 L 777.5999999999999,803.52" style="stroke:black;fill:lightblue;stroke-width:2;stroke-linecap:round;stroke-linejoin:round;" /><path d="M 1036.8,803.52 L 1036.8,784.0799999999999 L 1127.5199999999998,784.0799999999999 L 1127.5199999999998,822.96 L 1036.8,822.96 L 1036.8,803.52" style="stroke:black;fill:lightblue;stroke-width:2;stroke-linecap:round;stroke-linejoin:round;" /><path d="M 1296.0,803.52 L 1296.0,784.0799999999999 L 1386.7199999999998,784.0799999999999 L 1386.7199999999998,822.96 L 1296.0,822.96 L 1296.0,803.52" style="stroke:black;fill:lightblue;stroke-width:2;stroke-linecap:round;stroke-linejoin:round;" /><path d="M 0.0,1062.7199999999998 L 0.0,1043.2799999999997 L 90.71999999999998,1043.2799999999997 L 90.71999999999998,1082.1599999999999 L 0.0,1082.1599999999999 L 0.0,1062.7199999999998" style="stroke:black;fill:lightblue;stroke-width:2;stroke-linecap:round;stroke-linejoin:round;" /><path d="M 259.2,1062.7199999999998 L 259.2,1043.2799999999997 L 349.92,1043.2799999999997 L 349.92,1082.1599999999999 L 259.2,1082.1599999999999 L 259.2,1062.7199999999998" style="stroke:black;fill:lightblue;stroke-width:2;stroke-linecap:round;stroke-linejoin:round;" /><path d="M 518.4,1062.7199999999998 L 518.4,1043.2799999999997 L 609.12,1043.2799999999997 L 609.12,1082.1599999999999 L 518.4,1082.1599999999999 L 518.4,1062.7199999999998" style="stroke:black;fill:lightblue;stroke-width:2;stroke-linecap:round;stroke-linejoin:round;" /><path d="M 0.0,1321.9199999999998 L 0.0,1302.4799999999998 L 90.71999999999998,1302.4799999999998 L 90.71999999999998,1341.36 L 0.0,1341.36 L 0.0,1321.9199999999998" style="stroke:black;fill:lightblue;stroke-width:2;stroke-linecap:round;stroke-linejoin:round;" /><path d="M 259.2,1321.9199999999998 L 259.2,1302.4799999999998 L 349.92,1302.4799999999998 L 349.92,1341.36 L 259.2,1341.36 L 259.2,1321.9199999999998" style="stroke:black;fill:lightblue;stroke-width:2;stroke-linecap:round;stroke-linejoin:round;" /><path d="M 518.4,1321.9199999999998 L 518.4,1302.4799999999998 L 609.12,1302.4799999999998 L 609.12,1341.36 L 518.4,1341.36 L 518.4,1321.9199999999998" style="stroke:black;fill:lightblue;stroke-width:2;stroke-linecap:round;stroke-linejoin:round;" /><path d="M 777.5999999999999,1321.9199999999998 L 777.5999999999999,1302.4799999999998 L 868.3199999999999,1302.4799999999998 L 868.3199999999999,1341.36 L 777.5999999999999,1341.36 L 777.5999999999999,1321.9199999999998" style="stroke:black;fill:lightblue;stroke-width:2;stroke-linecap:round;stroke-linejoin:round;" /><path d="M 1036.8,1321.9199999999998 L 1036.8,1302.4799999999998 L 1127.5199999999998,1302.4799999999998 L 1127.5199999999998,1341.36 L 1036.8,1341.36 L 1036.8,1321.9199999999998" style="stroke:black;fill:lightblue;stroke-width:2;stroke-linecap:round;stroke-linejoin:round;" /><path d="M 1296.0,1321.9199999999998 L 1296.0,1302.4799999999998 L 1386.7199999999998,1302.4799999999998 L 1386.7199999999998,1341.36 L 1296.0,1341.36 L 1296.0,1321.9199999999998" style="stroke:black;fill:lightblue;stroke-width:2;stroke-linecap:round;stroke-linejoin:round;" /><path d="M 0.0,1840.32 L 0.0,1820.8799999999999 L 90.71999999999998,1820.8799999999999 L 90.71999999999998,1859.7599999999998 L 0.0,1859.7599999999998 L 0.0,1840.32" style="stroke:black;fill:lightblue;stroke-width:2;stroke-linecap:round;stroke-linejoin:round;" /><path d="M 259.2,1840.32 L 259.2,1820.8799999999999 L 349.92,1820.8799999999999 L 349.92,1859.7599999999998 L 259.2,1859.7599999999998 L 259.2,1840.32" style="stroke:black;fill:lightblue;stroke-width:2;stroke-linecap:round;stroke-linejoin:round;" /><path d="M 518.4,1840.32 L 518.4,1820.8799999999999 L 609.12,1820.8799999999999 L 609.12,1859.7599999999998 L 518.4,1859.7599999999998 L 518.4,1840.32" style="stroke:black;fill:lightblue;stroke-width:2;stroke-linecap:round;stroke-linejoin:round;" /><path d="M 777.5999999999999,1840.32 L 777.5999999999999,1820.8799999999999 L 868.3199999999999,1820.8799999999999 L 868.3199999999999,1859.7599999999998 L 777.5999999999999,1859.7599999999998 L 777.5999999999999,1840.32" style="stroke:black;fill:lightblue;stroke-width:2;stroke-linecap:round;stroke-linejoin:round;" /><path d="M 1036.8,1840.32 L 1036.8,1820.8799999999999 L 1127.5199999999998,1820.8799999999999 L 1127.5199999999998,1859.7599999999998 L 1036.8,1859.7599999999998 L 1036.8,1840.32" style="stroke:black;fill:lightblue;stroke-width:2;stroke-linecap:round;stroke-linejoin:round;" /><path d="M 1296.0,1840.32 L 1296.0,1820.8799999999999 L 1386.7199999999998,1820.8799999999999 L 1386.7199999999998,1859.7599999999998 L 1296.0,1859.7599999999998 L 1296.0,1840.32" style="stroke:black;fill:lightblue;stroke-width:2;stroke-linecap:round;stroke-linejoin:round;" /><path d="M 1555.1999999999998,1840.32 L 1555.1999999999998,1820.8799999999999 L 1645.9199999999998,1820.8799999999999 L 1645.9199999999998,1859.7599999999998 L 1555.1999999999998,1859.7599999999998 L 1555.1999999999998,1840.32" style="stroke:black;fill:lightblue;stroke-width:2;stroke-linecap:round;stroke-linejoin:round;" /><path d="M 259.2,259.2 L 174.96,259.2 L 98.82,259.19999999999993" style="stroke:orange;fill:none;stroke-width:2;stroke-linecap:round;stroke-linejoin:round;" /><path d="M 92.71999999999998 259.19999999999993 L 98.81999999999998 256.7699999999999 L 98.81999999999998 261.62999999999994 Z" style="stroke:orange;fill:orange;stroke-linecap:butt;stroke-linejoin:miter;" /><path d="M 777.5999999999999,259.2 L 693.3599999999999,259.2 L 617.22,259.19999999999993" style="stroke:yellowgreen;fill:none;stroke-width:2;stroke-linecap:round;stroke-linejoin:round;" /><path d="M 611.12 259.19999999999993 L 617.2199999999999 256.7699999999999 L 617.2199999999999 261.62999999999994 Z" style="stroke:yellowgreen;fill:yellowgreen;stroke-linecap:butt;stroke-linejoin:miter;" /><path d="M 45.35999999999999,473.03999999999996 L 434.15999999999997,388.79999999999995 L 815.0436825657829,306.275202110747" style="stroke:green;fill:none;stroke-width:2;stroke-linecap:round;stroke-linejoin:round;" /><path d="M 821.0053537199464 304.9835066940116 L 815.5582431990069 308.6500973410121 L 814.5291219325587 303.9003068804819 Z" style="stroke:green;fill:green;stroke-linecap:butt;stroke-linejoin:miter;" /><path d="M 45.35999999999999,991.44 L 693.3599999999999,907.1999999999999 L 1333.3275894995197,824.0042133650624" style="stroke:yellowgreen;fill:none;stroke-width:2;stroke-linecap:round;stroke-linejoin:round;" /><path d="M 1339.3766887653135 823.2178304605092 L 1333.6408535090384 826.4139365152064 L 1333.014325490001 821.5944902149183 Z" style="stroke:yellowgreen;fill:yellowgreen;stroke-linecap:butt;stroke-linejoin:miter;" /><path d="M 45.35999999999999,991.44 L 45.36,907.1999999999999 L 45.36,831.06" style="stroke:yellowgreen;fill:none;stroke-width:2;stroke-linecap:round;stroke-linejoin:round;" /><path d="M 45.36 824.9599999999999 L 47.79 831.0599999999998 L 42.93 831.0599999999998 Z" style="stroke:yellowgreen;fill:yellowgreen;stroke-linecap:butt;stroke-linejoin:miter;" /><path d="M 45.35999999999999,991.44 L 434.15999999999997,907.1999999999999 L 815.0436825657829,824.675202110747" style="stroke:yellowgreen;fill:none;stroke-width:2;stroke-linecap:round;stroke-linejoin:round;" /><path d="M 821.0053537199464 823.3835066940115 L 815.5582431990069 827.050097341012 L 814.5291219325587 822.3003068804818 Z" style="stroke:yellowgreen;fill:yellowgreen;stroke-linecap:butt;stroke-linejoin:miter;" /><path d="M 304.56,991.44 L 434.1599999999999,907.1999999999999 L 556.9686067079648,827.3744056398228" style="stroke:green;fill:none;stroke-width:2;stroke-linecap:round;stroke-linejoin:round;" /><path d="M 562.0831127673986 824.0499767011908 L 558.2929283999116 829.4118236274334 L 555.6442850160179 825.3369876522123 Z" style="stroke:green;fill:green;stroke-linecap:butt;stroke-linejoin:miter;" /><path d="M 563.7599999999999,991.44 L 693.3599999999999,907.1999999999999 L 816.1686067079647,827.3744056398228" style="stroke:blue;fill:none;stroke-width:2;stroke-linecap:round;stroke-linejoin:round;" /><path d="M 821.2831127673986 824.0499767011908 L 817.4929283999116 829.4118236274334 L 814.8442850160179 825.3369876522123 Z" style="stroke:blue;fill:blue;stroke-linecap:butt;stroke-linejoin:miter;" /><path d="M 518.4,1814.3999999999999 L 434.15999999999997,1814.3999999999999 L 358.02,1814.3999999999999" style="stroke:indigo;fill:none;stroke-width:2;stroke-linecap:round;stroke-linejoin:round;" /><path d="M 351.92 1814.3999999999999 L 358.02000000000004 1811.9699999999998 L 358.02000000000004 1816.83 Z" style="stroke:indigo;fill:indigo;stroke-linecap:butt;stroke-linejoin:miter;" /><text x="45.35999999999999" y="251.5" fill="black" font-size="14" font-family="sans-serif" text-anchor="middle" transform="rotate(0 45.35999999999999 257.09999999999997)"><tspan x="45.35999999999999" dy="11.200000000000001">MATH1210</tspan></text><text x="304.56" y="251.5" fill="black" font-size="14" font-family="sans-serif" text-anchor="middle" transform="rotate(0 304.56 257.09999999999997)"><tspan x="304.56" dy="11.200000000000001">MATH1220</tspan></text><text x="304.56" y="280.72" fill="black" font-size="8" font-family="sans-serif" text-anchor="middle" transform="rotate(0 304.56 283.92)"><tspan x="304.56" dy="6.4">MATH1210,</tspan></text><text x="563.7599999999999" y="251.5" fill="black" font-size="14" font-family="sans-serif" text-anchor="middle" transform="rotate(0 563.7599999999999 257.09999999999997)"><tspan x="563.7599999999999" dy="11.200000000000001">MATH1310</tspan></text><text x="822.9599999999999" y="251.5" fill="black" font-size="14" font-family="sans-serif" text-anchor="middle" transform="rotate(0 822.9599999999999 257.09999999999997)"><tspan x="822.9599999999999" dy="11.200000000000001">MATH1320</tspan></text><text x="822.9599999999999" y="280.72" fill="black" font-size="8" font-family="sans-serif" text-anchor="middle" transform="rotate(0 822.9599999999999 283.92)"><tspan x="822.9599999999999" dy="6.4">MATH1310,</tspan></text><text x="45.35999999999999" y="510.7" fill="black" font-size="14" font-family="sans-serif" text-anchor="middle" transform="rotate(0 45.35999999999999 516.3)"><tspan x="45.35999999999999" dy="11.200000000000001">MATH2310</tspan></text><text x="45.35999999999999" y="539.9200000000001" fill="black" font-size="8" font-family="sans-serif" text-anchor="middle" transform="rotate(0 45.35999999999999 543.12)"><tspan x="45.35999999999999" dy="6.4">MATH1320,</tspan></text><text x="45.35999999999999" y="769.9" fill="black" font-size="14" font-family="sans-serif" text-anchor="middle" transform="rotate(0 45.35999999999999 775.5)"><tspan x="45.35999999999999" dy="11.200000000000001">MATH3000</tspan></text><text x="45.35999999999999" y="799.12" fill="black" font-size="8" font-family="sans-serif" text-anchor="middle" transform="rotate(0 45.35999999999999 802.3199999999999)"><tspan x="45.35999999999999" dy="6.4">MATH1320,</tspan></text><text x="304.56" y="769.9" fill="black" font-size="14" font-family="sans-serif" text-anchor="middle" transform="rotate(0 304.56 775.5)"><tspan x="304.56" dy="11.200000000000001">MATH3100</tspan></text><text x="304.56" y="799.12" fill="black" font-size="8" font-family="sans-serif" text-anchor="middle" transform="rotate(0 304.56 802.3199999999999)"><tspan x="304.56" dy="6.4">MATH1320,</tspan></text><text x="563.7599999999999" y="769.9" fill="black" font-size="14" font-family="sans-serif" text-anchor="middle" transform="rotate(0 563.7599999999999 775.5)"><tspan x="563.7599999999999" dy="11.200000000000001">MATH3250</tspan></text><text x="563.7599999999999" y="799.12" fill="black" font-size="8" font-family="sans-serif" text-anchor="middle" transform="rotate(0 563.7599999999999 802.3199999999999)"><tspan x="563.7599999999999" dy="6.4">MATH1320,</tspan></text><text x="822.9599999999999" y="769.9" fill="black" font-size="14" font-family="sans-serif" text-anchor="middle" transform="rotate(0 822.9599999999999 775.5)"><tspan x="822.9599999999999" dy="11.200000000000001">MATH3310</tspan></text><text x="1082.1599999999999" y="769.9" fill="black" font-size="14" font-family="sans-serif" text-anchor="middle" transform="rotate(0 1082.1599999999999 775.5)"><tspan x="1082.1599999999999" dy="11.200000000000001">MATH3351</tspan></text><text x="1341.36" y="769.9" fill="black" font-size="14" font-family="sans-serif" text-anchor="middle" transform="rotate(0 1341.36 775.5)"><tspan x="1341.36" dy="11.200000000000001">MATH3354</tspan></text><text x="45.35999999999999" y="1029.1" fill="black" font-size="14" font-family="sans-serif" text-anchor="middle" transform="rotate(0 45.35999999999999 1034.7)"><tspan x="45.35999999999999" dy="11.200000000000001">MATH4040</tspan></text><text x="45.35999999999999" y="1053.5199999999998" fill="black" font-size="8" font-family="sans-serif" text-anchor="middle" transform="rotate(0 45.35999999999999 1061.5199999999998)"><tspan x="45.35999999999999" dy="8">MATH1320, MATH3354, </tspan><tspan x="45.35999999999999" dy="8">MATH3000, MATH3310, </tspan></text><text x="304.56" y="1029.1" fill="black" font-size="14" font-family="sans-serif" text-anchor="middle" transform="rotate(0 304.56 1034.7)"><tspan x="304.56" dy="11.200000000000001">MATH4300</tspan></text><text x="304.56" y="1058.3199999999997" fill="black" font-size="8" font-family="sans-serif" text-anchor="middle" transform="rotate(0 304.56 1061.5199999999998)"><tspan x="304.56" dy="6.4">MATH3250,</tspan></text><text x="563.7599999999999" y="1029.1" fill="black" font-size="14" font-family="sans-serif" text-anchor="middle" transform="rotate(0 563.7599999999999 1034.7)"><tspan x="563.7599999999999" dy="11.200000000000001">MATH4310</tspan></text><text x="563.7599999999999" y="1058.3199999999997" fill="black" font-size="8" font-family="sans-serif" text-anchor="middle" transform="rotate(0 563.7599999999999 1061.5199999999998)"><tspan x="563.7599999999999" dy="6.4">MATH3310,</tspan></text><text x="45.35999999999999" y="1288.2999999999997" fill="black" font-size="14" font-family="sans-serif" text-anchor="middle" transform="rotate(0 45.35999999999999 1293.8999999999999)"><tspan x="45.35999999999999" dy="11.200000000000001">MATH5310</tspan></text><text x="304.56" y="1288.2999999999997" fill="black" font-size="14" font-family="sans-serif" text-anchor="middle" transform="rotate(0 304.56 1293.8999999999999)"><tspan x="304.56" dy="11.200000000000001">MATH5352</tspan></text><text x="563.7599999999999" y="1288.2999999999997" fill="black" font-size="14" font-family="sans-serif" text-anchor="middle" transform="rotate(0 563.7599999999999 1293.8999999999999)"><tspan x="563.7599999999999" dy="11.200000000000001">MATH5651</tspan></text><text x="822.9599999999999" y="1288.2999999999997" fill="black" font-size="14" font-family="sans-serif" text-anchor="middle" transform="rotate(0 822.9599999999999 1293.8999999999999)"><tspan x="822.9599999999999" dy="11.200000000000001">MATH5652</tspan></text><text x="1082.1599999999999" y="1288.2999999999997" fill="black" font-size="14" font-family="sans-serif" text-anchor="middle" transform="rotate(0 1082.1599999999999 1293.8999999999999)"><tspan x="1082.1599999999999" dy="11.200000000000001">MATH5700</tspan></text><text x="1082.1599999999999" y="1317.5199999999998" fill="black" font-size="8" font-family="sans-serif" text-anchor="middle" transform="rotate(0 1082.1599999999999 1320.7199999999998)"><tspan x="1082.1599999999999" dy="6.4">MATH3351, MATH2310, </tspan></text><text x="1341.36" y="1288.2999999999997" fill="black" font-size="14" font-family="sans-serif" text-anchor="middle" transform="rotate(0 1341.36 1293.8999999999999)"><tspan x="1341.36" dy="11.200000000000001">MATH5770</tspan></text><text x="45.35999999999999" y="1806.6999999999998" fill="black" font-size="14" font-family="sans-serif" text-anchor="middle" transform="rotate(0 45.35999999999999 1812.3)"><tspan x="45.35999999999999" dy="11.200000000000001">MATH7310</tspan></text><text x="45.35999999999999" y="1835.9199999999998" fill="black" font-size="8" font-family="sans-serif" text-anchor="middle" transform="rotate(0 45.35999999999999 1839.12)"><tspan x="45.35999999999999" dy="6.4">MATH5310,</tspan></text><text x="304.56" y="1806.6999999999998" fill="black" font-size="14" font-family="sans-serif" text-anchor="middle" transform="rotate(0 304.56 1812.3)"><tspan x="304.56" dy="11.200000000000001">MATH7340</tspan></text><text x="563.7599999999999" y="1806.6999999999998" fill="black" font-size="14" font-family="sans-serif" text-anchor="middle" transform="rotate(0 563.7599999999999 1812.3)"><tspan x="563.7599999999999" dy="11.200000000000001">MATH7410</tspan></text><text x="563.7599999999999" y="1835.9199999999998" fill="black" font-size="8" font-family="sans-serif" text-anchor="middle" transform="rotate(0 563.7599999999999 1839.12)"><tspan x="563.7599999999999" dy="6.4">MATH7340, MATH7310, </tspan></text><text x="822.9599999999999" y="1806.6999999999998" fill="black" font-size="14" font-family="sans-serif" text-anchor="middle" transform="rotate(0 822.9599999999999 1812.3)"><tspan x="822.9599999999999" dy="11.200000000000001">MATH7751</tspan></text><text x="822.9599999999999" y="1835.9199999999998" fill="black" font-size="8" font-family="sans-serif" text-anchor="middle" transform="rotate(0 822.9599999999999 1839.12)"><tspan x="822.9599999999999" dy="6.4">MATH5652, MATH5651, </tspan></text><text x="1082.1599999999999" y="1806.6999999999998" fill="black" font-size="14" font-family="sans-serif" text-anchor="middle" transform="rotate(0 1082.1599999999999 1812.3)"><tspan x="1082.1599999999999" dy="11.200000000000001">MATH7752</tspan></text><text x="1082.1599999999999" y="1835.9199999999998" fill="black" font-size="8" font-family="sans-serif" text-anchor="middle" transform="rotate(0 1082.1599999999999 1839.12)"><tspan x="1082.1599999999999" dy="6.4">MATH5652, MATH5651, </tspan></text><text x="1341.36" y="1806.6999999999998" fill="black" font-size="14" font-family="sans-serif" text-anchor="middle" transform="rotate(0 1341.36 1812.3)"><tspan x="1341.36" dy="11.200000000000001">MATH7800</tspan></text><text x="1341.36" y="1835.9199999999998" fill="black" font-size="8" font-family="sans-serif" text-anchor="middle" transform="rotate(0 1341.36 1839.12)"><tspan x="1341.36" dy="6.4">MATH5770, MATH5352, </tspan></text><text x="1600.56" y="1806.6999999999998" fill="black" font-size="14" font-family="sans-serif" text-anchor="middle" transform="rotate(0 1600.56 1812.3)"><tspan x="1600.56" dy="11.200000000000001">MATH7820</tspan></text><text x="1600.56" y="1835.9199999999998" fill="black" font-size="8" font-family="sans-serif" text-anchor="middle" transform="rotate(0 1600.56 1839.12)"><tspan x="1600.56" dy="6.4">MATH5770, MATH5310, </tspan></text></svg>