<svg xmlns="http://www.w3.org/2000/svg" xml:lang="en" height="1688.8pt" width="3289.36pt" viewBox="-345.44 127.6 3289.36 1688.8"><circle cx="45.35999999999999" cy="259.2" r="45.35999999999999" style="stroke:black;fill:lightblue;stroke-width:2;" /><circle cx="45.35999999999999" cy="518.4" r="45.35999999999999" style="stroke:black;fill:lightblue;stroke-width:2;" /><circle cx="304.56" cy="518.4" r="45.35999999999999" style="stroke:black;fill:lightblue;stroke-width:2;" /><circle cx="563.7599999999999" cy="518.4" r="45.35999999999999" style="stroke:black;fill:lightblue;stroke-width:2;" /><circle cx="45.35999999999999" cy="777.5999999999999" r="45.35999999999999" style="stroke:black;fill:lightblue;stroke-width:2;" /><circle cx="304.56" cy="777.5999999999999" r="45.35999999999999" style="stroke:black;fill:lightblue;stroke-width:2;" /><circle cx="563.7599999999999" cy="777.5999999999999" r="45.35999999999999" style="stroke:black;fill:lightblue;stroke-width:2;" /><circle cx="822.9599999999999" cy="777.5999999999999" r="45.35999999999999" style="stroke:black;fill:lightblue;stroke-width:2;" /><circle cx="1082.1599999999999" cy="777.5999999999999" r="45.35999999999999" style="stroke:black;fill:lightblue;stroke-width:2;" /><circle cx="1341.36" cy="777.5999999999999" r="45.35999999999999" style="stroke:black;fill:lightblue;stroke-width:2;" /><circle cx="1600.56" cy="777.5999999999999" r="45.35999999999999" style="stroke:black;fill:lightblue;stroke-width:2;" /><circle cx="1859.7599999999998" cy="777.5999999999999" r="45.35999999999999" style="stroke:black;fill:lightblue;stroke-width:2;" /><circle cx="45.35999999999999" cy="1036.8" r="45.35999999999999" style="stroke:black;fill:lightblue;stroke-width:2;" /><circle cx="304.56" cy="1036.8" r="45.35999999999999" style="stroke:black;fill:lightblue;stroke-width:2;" /><circle cx="563.7599999999999" cy="1036.8" r="45.35999999999999" style="stroke:black;fill:lightblue;stroke-width:2;" /><circle cx="822.9599999999999" cy="1036.8" r="45.35999999999999" style="stroke:black;fill:lightblue;stroke-width:2;" /><circle cx="1082.1599999999999" cy="1036.8" r="45.35999999999999" style="stroke:black;fill:lightblue;stroke-width:2;" /><circle cx="1341.36" cy="1036.8" r="45.35999999999999" style="stroke:black;fill:lightblue;stroke-width:2;" /><circle cx="1600.56" cy="1036.8" r="45.35999999999999" style="stroke:black;fill:lightblue;stroke-width:2;" /><circle cx="1859.7599999999998" cy="1036.8" r="45.35999999999999" style="stroke:black;fill:lightblue;stroke-width:2;" /><circle cx="2118.96" cy="1036.8" r="45.35999999999999" style="stroke:black;fill:lightblue;stroke-width:2;" /><circle cx="2378.16" cy="1036.8" r="45.35999999999999" style="stroke:black;fill:lightblue;stroke-width:2;" /><circle cx="2637.36" cy="1036.8" r="45.35999999999999" style="stroke:black;fill:lightblue;stroke-width:2;" /><circle cx="2896.56" cy="1036.8" r="45.35999999999999" style="stroke:black;fill:lightblue;stroke-width:2;" /><circle cx="45.35999999999999" cy="1296.0" r="45.35999999999999" style="stroke:black;fill:lightblue;stroke-width:2;" /><path d="M 563.7599999999999 732.24 Q 45.35999999999995 777.5999999999999 0.35302614863768506 263.2345845558592" style="stroke:indigo;fill:none;stroke-width:2;stroke-linecap:round;" /><path d="M 0.1743339005618198 261.1923874349922 L 3.1268030307909243 267.0573534225359 L -1.7146984362401838 267.4809848009011 Z" style="stroke:indigo;fill:indigo;stroke-linecap:butt;stroke-linejoin:miter;" /><path d="M 90.71999999999998 1036.8 Q 563.7599999999999 563.7599999999999 1033.9362175361944 1033.9362175361944" style="stroke:green;fill:none;stroke-width:2;stroke-linecap:round;" /><path d="M 1035.3857864376268 1035.3857864376268 L 1029.3541655941056 1032.7907045506722 L 1032.7907045506722 1029.3541655941056 Z" style="stroke:green;fill:green;stroke-linecap:butt;stroke-linejoin:miter;" /><path d="M 349.92 1036.8 Q 563.7599999999999 822.9599999999999 774.7362175361944 1033.9362175361944" style="stroke:blue;fill:none;stroke-width:2;stroke-linecap:round;" /><path d="M 776.1857864376268 1035.3857864376268 L 770.1541655941056 1032.7907045506722 L 773.5907045506722 1029.3541655941056 Z" style="stroke:blue;fill:blue;stroke-linecap:butt;stroke-linejoin:miter;" /><path d="M 349.92 1036.8 Q 693.3599999999999 693.3599999999999 1033.9362175361944 1033.9362175361944" style="stroke:blue;fill:none;stroke-width:2;stroke-linecap:round;" /><path d="M 1035.3857864376268 1035.3857864376268 L 1029.3541655941056 1032.7907045506722 L 1032.7907045506722 1029.3541655941056 Z" style="stroke:blue;fill:blue;stroke-linecap:butt;stroke-linejoin:miter;" /><path d="M 1859.7599999999998 991.44 Q 868.3199999999998 1555.1999999999998 306.56192400917814 567.2806249816581" style="stroke:yellowgreen;fill:none;stroke-width:2;stroke-linecap:round;" /><path d="M 305.54860444897685 565.4985802378558 L 310.67622300735127 569.6000955578094 L 306.4514730293614 572.0024043688232 Z" style="stroke:yellowgreen;fill:yellowgreen;stroke-linecap:butt;stroke-linejoin:miter;" /><path d="M 1814.3999999999999 1036.8 Q 1470.9599999999998 1380.24 1130.3837824638053 1039.6637824638055" style="stroke:yellowgreen;fill:none;stroke-width:2;stroke-linecap:round;" /><path d="M 1128.9342135623729 1038.214213562373 L 1134.9658344058942 1040.8092954493277 L 1131.5292954493275 1044.2458344058944 Z" style="stroke:yellowgreen;fill:yellowgreen;stroke-linecap:butt;stroke-linejoin:miter;" /><path d="M 1814.3999999999999 1036.8 Q 1211.76 1639.44 611.9837824638054 1039.6637824638055" style="stroke:yellowgreen;fill:none;stroke-width:2;stroke-linecap:round;" /><path d="M 610.534213562373 1038.214213562373 L 616.5658344058942 1040.8092954493277 L 613.1292954493276 1044.2458344058944 Z" style="stroke:yellowgreen;fill:yellowgreen;stroke-linecap:butt;stroke-linejoin:miter;" /><path d="M 1859.7599999999998 991.44 Q 997.9199999999998 1425.6 565.5820850145265 567.3769747303288" style="stroke:yellowgreen;fill:none;stroke-width:2;stroke-linecap:round;" /><path d="M 564.6597950689019 565.5461603606561 L 569.5743548672503 569.9006984519417 L 565.2339851908557 572.0872004693737 Z" style="stroke:yellowgreen;fill:yellowgreen;stroke-linecap:butt;stroke-linejoin:miter;" /><path d="M 2118.96 991.44 Q 997.9199999999998 1684.8 306.6903651709309 567.2044221922529" style="stroke:green;fill:none;stroke-width:2;stroke-linecap:round;" /><path d="M 305.61203218317576 565.460949230742 L 310.88738365721366 569.370625281947 L 306.7540770265102 571.9270634870643 Z" style="stroke:green;fill:green;stroke-linecap:butt;stroke-linejoin:miter;" /><path d="M 2073.6 1036.8 Q 1600.56 1509.84 1130.3837824638053 1039.6637824638055" style="stroke:green;fill:none;stroke-width:2;stroke-linecap:round;" /><path d="M 1128.9342135623729 1038.214213562373 L 1134.9658344058942 1040.8092954493277 L 1131.5292954493275 1044.2458344058944 Z" style="stroke:green;fill:green;stroke-linecap:butt;stroke-linejoin:miter;" /><path d="M 2118.96 991.44 Q 1127.5199999999998 1555.1999999999998 565.7619240091782 567.2806249816581" style="stroke:green;fill:none;stroke-width:2;stroke-linecap:round;" /><path d="M 564.7486044489767 565.4985802378558 L 569.8762230073512 569.6000955578094 L 565.6514730293613 572.0024043688232 Z" style="stroke:green;fill:green;stroke-linecap:butt;stroke-linejoin:miter;" /><path d="M 2118.96 991.44 Q 868.32 1814.3999999999999 47.5862687772405 567.1432273543888" style="stroke:green;fill:none;stroke-width:2;stroke-linecap:round;" /><path d="M 46.459391988760835 565.4307295577228 L 51.84247396711413 569.1906934424334 L 47.78260114184752 571.8622159751218 Z" style="stroke:green;fill:green;stroke-linecap:butt;stroke-linejoin:miter;" /><path d="M 2332.7999999999997 1036.8 Q 1600.56 1769.04 871.1837824638054 1039.6637824638055" style="stroke:blue;fill:none;stroke-width:2;stroke-linecap:round;" /><path d="M 869.7342135623729 1038.214213562373 L 875.7658344058941 1040.8092954493277 L 872.3292954493276 1044.2458344058944 Z" style="stroke:blue;fill:blue;stroke-linecap:butt;stroke-linejoin:miter;" /><path d="M 45.35999999999999 1250.64 Q -213.83999999999997 777.5999999999999 255.64824825366412 520.346165340458" style="stroke:red;fill:none;stroke-width:2;stroke-linecap:round;" /><path d="M 257.44604852032796 519.3610693039299 L 253.26419571160307 524.4233817287176 L 250.92879730305344 520.1612796331145 Z" style="stroke:red;fill:red;stroke-linecap:butt;stroke-linejoin:miter;" /><path d="M 45.35999999999999 1250.64 Q 693.3599999999999 129.6 1810.893636720458 775.5732004164496" style="stroke:red;fill:none;stroke-width:2;stroke-linecap:round;" /><path d="M 1812.6684625780038 776.5991113167652 L 1806.1711936907857 775.6502188006245 L 1808.603353191046 771.4425828651741 Z" style="stroke:red;fill:red;stroke-linecap:butt;stroke-linejoin:miter;" /><path d="M 45.35999999999999 1250.64 Q -343.44 907.1999999999999 -2.681240415149695 521.4353665077166" style="stroke:red;fill:none;stroke-width:2;stroke-linecap:round;" /><path d="M -1.3240693408146642 519.8989464235638 L -3.541260925669408 526.079477264523 L -7.183700734929372 522.8619887663434 Z" style="stroke:red;fill:red;stroke-linecap:butt;stroke-linejoin:miter;" /><path d="M 45.35999999999999 1250.64 Q -84.24000000000002 648.0 514.4405243392575 519.2515001420951" style="stroke:red;fill:none;stroke-width:2;stroke-linecap:round;" /><path d="M 516.4447033774111 518.820493897331 L 510.99194876377214 522.4786856806357 L 509.970148593258 517.7273148877448 Z" style="stroke:red;fill:red;stroke-linecap:butt;stroke-linejoin:miter;" /><path d="M 0.0,285.12 L 0.0,265.68 L 90.71999999999998,265.68 L 90.71999999999998,304.56 L 0.0,304.56 L 0.0,285.12" style="stroke:black;fill:lightblue;stroke-width:2;stroke-linecap:round;stroke-linejoin:round;" /><path d="M 0.0,544.32 L 0.0,524.88 L 90.71999999999998,524.88 L 90.71999999999998,563.76 L 0.0,563.76 L 0.0,544.32" style="stroke:black;fill:lightblue;stroke-width:2;stroke-linecap:round;stroke-linejoin:round;" /><path d="M 259.2,544.32 L 259.2,524.88 L 349.92,524.88 L 349.92,563.76 L 259.2,563.76 L 259.2,544.32" style="stroke:black;fill:lightblue;stroke-width:2;stroke-linecap:round;stroke-linejoin:round;" /><path d="M 518.4,544.32 L 518.4,524.88 L 609.12,524.88 L 609.12,563.76 L 518.4,563.76 L 518.4,544.32" style="stroke:black;fill:lightblue;stroke-width:2;stroke-linecap:round;stroke-linejoin:round;" /><path d="M 0.0,803.52 L 0.0,784.0799999999999 L 90.71999999999998,784.0799999999999 L 90.71999999999998,822.96 L 0.0,822.96 L 0.0,803.52" style="stroke:black;fill:lightblue;stroke-width:2;stroke-linecap:round;stroke-linejoin:round;" /><path d="M 259.2,803.52 L 259.2,784.0799999999999 L 349.92,784.0799999999999 L 349.92,822.96 L 259.2,822.96 L 259.2,803.52" style="stroke:black;fill:lightblue;stroke-width:2;stroke-linecap:round;stroke-linejoin:round;" /><path d="M 518.4,803.52 L 518.4,784.0799999999999 L 609.12,784.0799999999999 L 609.12,822.96 L 518.4,822.96 L 518.4,803.52" style="stroke:black;fill:lightblue;stroke-width:2;stroke-linecap:round;stroke-linejoin:round;" /><path d="M 777.5999999999999,803.52 L 777.5999999999999,784.0799999999999 L 868.3199999999999,784.0799999999999 L 868.3199999999999,822.96 L 777.5999999999999,822.96 L 777.5999999999999,803.52" style="stroke:black;fill:lightblue;stroke-width:2;stroke-linecap:round;stroke-linejoin:round;" /><path d="M 1036.8,803.52 L 1036.8,784.0799999999999 L 1127.5199999999998,784.0799999999999 L 1127.5199999999998,822.96 L 1036.8,822.96 L 1036.8,803.52" style="stroke:black;fill:lightblue;stroke-width:2;stroke-linecap:round;stroke-linejoin:round;" /><path d="M 1296.0,803.52 L 1296.0,784.0799999999999 L 1386.7199999999998,784.0799999999999 L 1386.7199999999998,822.96 L 1296.0,822.96 L 1296.0,803.52" style="stroke:black;fill:lightblue;stroke-width:2;stroke-linecap:round;stroke-linejoin:round;" /><path d="M 1555.1999999999998,803.52 L 1555.1999999999998,784.0799999999999 L 1645.9199999999998,784.0799999999999 L 1645.9199999999998,822.96 L 1555.1999999999998,822.96 L 1555.1999999999998,803.52" style="stroke:black;fill:lightblue;stroke-width:2;stroke-linecap:round;stroke-linejoin:round;" /><path d="M 1814.3999999999999,803.52 L 1814.3999999999999,784.0799999999999 L 1905.12,784.0799999999999 L 1905.12,822.96 L 1814.3999999999999,822.96 L 1814.3999999999999,803.52" style="stroke:black;fill:lightblue;stroke-width:2;stroke-linecap:round;stroke-linejoin:round;" /><path d="M 0.0,1062.7199999999998 L 0.0,1043.2799999999997 L 90.71999999999998,1043.2799999999997 L 90.71999999999998,1082.1599999999999 L 0.0,1082.1599999999999 L 0.0,1062.7199999999998" style="stroke:black;fill:lightblue;stroke-width:2;stroke-linecap:round;stroke-linejoin:round;" /><path d="M 259.2,1062.7199999999998 L 259.2,1043.2799999999997 L 349.92,1043.2799999999997 L 349.92,1082.1599999999999 L 259.2,1082.1599999999999 L 259.2,1062.7199999999998" style="stroke:black;fill:lightblue;stroke-width:2;stroke-linecap:round;stroke-linejoin:round;" /><path d="M 518.4,1062.7199999999998 L 518.4,1043.2799999999997 L 609.12,1043.2799999999997 L 609.12,1082.1599999999999 L 518.4,1082.1599999999999 L 518.4,1062.7199999999998" style="stroke:black;fill:lightblue;stroke-width:2;stroke-linecap:round;stroke-linejoin:round;" /><path d="M 777.5999999999999,1062.7199999999998 L 777.5999999999999,1043.2799999999997 L 868.3199999999999,1043.2799999999997 L 868.3199999999999,1082.1599999999999 L 777.5999999999999,1082.1599999999999 L 777.5999999999999,1062.7199999999998" style="stroke:black;fill:lightblue;stroke-width:2;stroke-linecap:round;stroke-linejoin:round;" /><path d="M 1036.8,1062.7199999999998 L 1036.8,1043.2799999999997 L 1127.5199999999998,1043.2799999999997 L 1127.5199999999998,1082.1599999999999 L 1036.8,1082.1599999999999 L 1036.8,1062.7199999999998" style="stroke:black;fill:lightblue;stroke-width:2;stroke-linecap:round;stroke-linejoin:round;" /><path d="M 1296.0,1062.7199999999998 L 1296.0,1043.2799999999997 L 1386.7199999999998,1043.2799999999997 L 1386.7199999999998,1082.1599999999999 L 1296.0,1082.1599999999999 L 1296.0,1062.7199999999998" style="stroke:black;fill:lightblue;stroke-width:2;stroke-linecap:round;stroke-linejoin:round;" /><path d="M 1555.1999999999998,1062.7199999999998 L 1555.1999999999998,1043.2799999999997 L 1645.9199999999998,1043.2799999999997 L 1645.9199999999998,1082.1599999999999 L 1555.1999999999998,1082.1599999999999 L 1555.1999999999998,1062.7199999999998" style="stroke:black;fill:lightblue;stroke-width:2;stroke-linecap:round;stroke-linejoin:round;" /><path d="M 1814.3999999999999,1062.7199999999998 L 1814.3999999999999,1043.2799999999997 L 1905.12,1043.2799999999997 L 1905.12,1082.1599999999999 L 1814.3999999999999,1082.1599999999999 L 1814.3999999999999,1062.7199999999998" style="stroke:black;fill:lightblue;stroke-width:2;stroke-linecap:round;stroke-linejoin:round;" /><path d="M 2073.6,1062.7199999999998 L 2073.6,1043.2799999999997 L 2164.3199999999997,1043.2799999999997 L 2164.3199999999997,1082.1599999999999 L 2073.6,1082.1599999999999 L 2073.6,1062.7199999999998" style="stroke:black;fill:lightblue;stroke-width:2;stroke-linecap:round;stroke-linejoin:round;" /><path d="M 2332.7999999999997,1062.7199999999998 L 2332.7999999999997,1043.2799999999997 L 2423.52,1043.2799999999997 L 2423.52,1082.1599999999999 L 2332.7999999999997,1082.1599999999999 L 2332.7999999999997,1062.7199999999998" style="stroke:black;fill:lightblue;stroke-width:2;stroke-linecap:round;stroke-linejoin:round;" /><path d="M 2592.0,1062.7199999999998 L 2592.0,1043.2799999999997 L 2682.72,1043.2799999999997 L 2682.72,1082.1599999999999 L 2592.0,1082.1599999999999 L 2592.0,1062.7199999999998" style="stroke:black;fill:lightblue;stroke-width:2;stroke-linecap:round;stroke-linejoin:round;" /><path d="M 2851.2,1062.7199999999998 L 2851.2,1043.2799999999997 L 2941.9199999999996,1043.2799999999997 L 2941.9199999999996,1082.1599999999999 L 2851.2,1082.1599999999999 L 2851.2,1062.7199999999998" style="stroke:black;fill:lightblue;stroke-width:2;stroke-linecap:round;stroke-linejoin:round;" /><path d="M 0.0,1321.9199999999998 L 0.0,1302.4799999999998 L 90.71999999999998,1302.4799999999998 L 90.71999999999998,1341.36 L 0.0,1341.36 L 0.0,1321.9199999999998" style="stroke:black;fill:lightblue;stroke-width:2;stroke-linecap:round;stroke-linejoin:round;" /><path d="M 563.7599999999999,732.24 L 563.7599999999999,648.0 L 563.7599999999999,571.8599999999999" style="stroke:indigo;fill:none;stroke-width:2;stroke-linecap:round;stroke-linejoin:round;" /><path d="M 563.7599999999999 565.7599999999999 L 566.1899999999998 571.8599999999998 L 561.3299999999999 571.8599999999998 Z" style="stroke:indigo;fill:indigo;stroke-linecap:butt;stroke-linejoin:miter;" /><path d="M 563.7599999999999,732.24 L 304.56,648.0 L 53.06337595672075,566.2635971859341" style="stroke:indigo;fill:none;stroke-width:2;stroke-linecap:round;stroke-linejoin:round;" /><path d="M 47.262068137461966 564.378172144675 L 53.814455112501015 563.9525843989179 L 52.31229680094048 568.5746099729503 Z" style="stroke:indigo;fill:indigo;stroke-linecap:butt;stroke-linejoin:miter;" /><path d="M 563.7599999999999,732.24 L 434.15999999999997,648.0 L 311.3513932920352,568.1744056398228" style="stroke:indigo;fill:none;stroke-width:2;stroke-linecap:round;stroke-linejoin:round;" /><path d="M 306.2368872326013 564.8499767011907 L 312.6757149839821 566.1369876522123 L 310.0270716000884 570.2118236274333 Z" style="stroke:indigo;fill:indigo;stroke-linecap:butt;stroke-linejoin:miter;" /><path d="M 1341.36,732.24 L 952.56,647.9999999999999 L 571.6763174342171,565.4752021107467" style="stroke:orange;fill:none;stroke-width:2;stroke-linecap:round;stroke-linejoin:round;" /><path d="M 565.7146462800536 564.1835066940113 L 572.1908780674412 563.1003068804815 L 571.161756800993 567.8500973410117 Z" style="stroke:orange;fill:orange;stroke-linecap:butt;stroke-linejoin:miter;" /><path d="M 45.35999999999999,991.44 L 822.9599999999999,907.1999999999999 L 1592.5071169261337,823.8323956663355" style="stroke:green;fill:none;stroke-width:2;stroke-linecap:round;stroke-linejoin:round;" /><path d="M 1598.571633808922 823.1754063373667 L 1592.7688356260344 826.2482605884952 L 1592.2453982262332 821.4165307441756 Z" style="stroke:green;fill:green;stroke-linecap:butt;stroke-linejoin:miter;" /><path d="M 45.35999999999999,991.44 L 304.55999999999995,907.1999999999999 L 556.0566240432792,825.4635971859342" style="stroke:green;fill:none;stroke-width:2;stroke-linecap:round;stroke-linejoin:round;" /><path d="M 561.8579318625378 823.578172144675 L 556.8077031990593 827.7746099729503 L 555.3055448874989 823.152584398918 Z" style="stroke:green;fill:green;stroke-linecap:butt;stroke-linejoin:miter;" /><path d="M 45.35999999999999,991.44 L 693.3599999999999,907.1999999999999 L 1333.3275894995197,824.0042133650624" style="stroke:green;fill:none;stroke-width:2;stroke-linecap:round;stroke-linejoin:round;" /><path d="M 1339.3766887653135 823.2178304605092 L 1333.6408535090384 826.4139365152064 L 1333.014325490001 821.5944902149183 Z" style="stroke:green;fill:green;stroke-linecap:butt;stroke-linejoin:miter;" /><path d="M 304.56,991.44 L 822.9599999999999,907.1999999999999 L 1333.364872849546,824.2592081619487" style="stroke:blue;fill:none;stroke-width:2;stroke-linecap:round;stroke-linejoin:round;" /><path d="M 1339.385894530752 823.2807921387528 L 1333.7546352981308 826.657746307085 L 1332.9751104009615 821.8606700168126 Z" style="stroke:blue;fill:blue;stroke-linecap:butt;stroke-linejoin:miter;" /><path d="M 304.56,991.44 L 693.3599999999999,907.1999999999999 L 1074.243682565783,824.675202110747" style="stroke:blue;fill:none;stroke-width:2;stroke-linecap:round;stroke-linejoin:round;" /><path d="M 1080.2053537199463 823.3835066940115 L 1074.758243199007 827.050097341012 L 1073.7291219325587 822.3003068804818 Z" style="stroke:blue;fill:blue;stroke-linecap:butt;stroke-linejoin:miter;" /><path d="M 304.56,991.44 L 174.95999999999998,907.1999999999999 L 52.15139329203511,827.3744056398228" style="stroke:blue;fill:none;stroke-width:2;stroke-linecap:round;stroke-linejoin:round;" /><path d="M 47.036887232601224 824.0499767011908 L 53.475714983981966 825.3369876522123 L 50.82707160008826 829.4118236274334 Z" style="stroke:blue;fill:blue;stroke-linecap:butt;stroke-linejoin:miter;" /><path d="M 304.56,991.44 L 1082.1599999999999,907.1999999999999 L 1851.7071169261337,823.8323956663355" style="stroke:blue;fill:none;stroke-width:2;stroke-linecap:round;stroke-linejoin:round;" /><path d="M 1857.7716338089217 823.1754063373667 L 1851.9688356260342 826.2482605884952 L 1851.445398226233 821.4165307441756 Z" style="stroke:blue;fill:blue;stroke-linecap:butt;stroke-linejoin:miter;" /><path d="M 304.56,991.44 L 952.56,907.1999999999999 L 1592.5275894995195,824.0042133650624" style="stroke:blue;fill:none;stroke-width:2;stroke-linecap:round;stroke-linejoin:round;" /><path d="M 1598.5766887653135 823.2178304605092 L 1592.8408535090384 826.4139365152064 L 1592.214325490001 821.5944902149183 Z" style="stroke:blue;fill:blue;stroke-linecap:butt;stroke-linejoin:miter;" /><path d="M 304.56,991.44 L 434.1599999999999,907.1999999999999 L 556.9686067079648,827.3744056398228" style="stroke:blue;fill:none;stroke-width:2;stroke-linecap:round;stroke-linejoin:round;" /><path d="M 562.0831127673986 824.0499767011908 L 558.2929283999116 829.4118236274334 L 555.6442850160179 825.3369876522123 Z" style="stroke:blue;fill:blue;stroke-linecap:butt;stroke-linejoin:miter;" /><path d="M 1341.36,991.44 L 1341.36,907.1999999999999 L 1341.36,831.06" style="stroke:orange;fill:none;stroke-width:2;stroke-linecap:round;stroke-linejoin:round;" /><path d="M 1341.36 824.9599999999999 L 1343.79 831.0599999999998 L 1338.9299999999998 831.0599999999998 Z" style="stroke:orange;fill:orange;stroke-linecap:butt;stroke-linejoin:miter;" /><path d="M 1341.36,991.44 L 822.9599999999998,907.2 L 312.55512715045364,824.2592081619489" style="stroke:orange;fill:none;stroke-width:2;stroke-linecap:round;stroke-linejoin:round;" /><path d="M 306.5341054692476 823.280792138753 L 312.94488959903833 821.8606700168128 L 312.16536470186907 826.6577463070852 Z" style="stroke:orange;fill:orange;stroke-linecap:butt;stroke-linejoin:miter;" /><path d="M 1296.0,1036.8 L 1211.76,1036.8 L 1135.62,1036.8" style="stroke:orange;fill:none;stroke-width:2;stroke-linecap:round;stroke-linejoin:round;" /><path d="M 1129.5199999999998 1036.8 L 1135.6199999999997 1034.37 L 1135.6199999999997 1039.23 Z" style="stroke:orange;fill:orange;stroke-linecap:butt;stroke-linejoin:miter;" /><path d="M 1341.36,991.44 L 1600.56,907.1999999999999 L 1852.056624043279,825.4635971859342" style="stroke:orange;fill:none;stroke-width:2;stroke-linecap:round;stroke-linejoin:round;" /><path d="M 1857.857931862538 823.578172144675 L 1852.8077031990592 827.7746099729503 L 1851.3055448874989 823.152584398918 Z" style="stroke:orange;fill:orange;stroke-linecap:butt;stroke-linejoin:miter;" /><path d="M 1341.36,991.44 L 1470.9599999999998,907.1999999999999 L 1593.7686067079649,827.3744056398228" style="stroke:orange;fill:none;stroke-width:2;stroke-linecap:round;stroke-linejoin:round;" /><path d="M 1598.8831127673986 824.0499767011908 L 1595.0929283999117 829.4118236274334 L 1592.444285016018 825.3369876522123 Z" style="stroke:orange;fill:orange;stroke-linecap:butt;stroke-linejoin:miter;" /><path d="M 1600.56,991.44 L 1730.1599999999999,907.1999999999999 L 1852.968606707965,827.3744056398228" style="stroke:yellow;fill:none;stroke-width:2;stroke-linecap:round;stroke-linejoin:round;" /><path d="M 1858.0831127673985 824.0499767011908 L 1854.2929283999115 829.4118236274334 L 1851.6442850160179 825.3369876522123 Z" style="stroke:yellow;fill:yellow;stroke-linecap:butt;stroke-linejoin:miter;" /><path d="M 1600.56,991.44 L 1600.56,907.1999999999999 L 1600.56,831.06" style="stroke:yellow;fill:none;stroke-width:2;stroke-linecap:round;stroke-linejoin:round;" /><path d="M 1600.56 824.9599999999999 L 1602.99 831.0599999999998 L 1598.1299999999999 831.0599999999998 Z" style="stroke:yellow;fill:yellow;stroke-linecap:butt;stroke-linejoin:miter;" /><path d="M 1555.1999999999998,1036.8 L 1470.9599999999998,1036.8 L 1394.82,1036.8" style="stroke:yellow;fill:none;stroke-width:2;stroke-linecap:round;stroke-linejoin:round;" /><path d="M 1388.7199999999998 1036.8 L 1394.8199999999997 1034.37 L 1394.8199999999997 1039.23 Z" style="stroke:yellow;fill:yellow;stroke-linecap:butt;stroke-linejoin:miter;" /><path d="M 1859.7599999999998,991.44 L 1600.56,907.1999999999999 L 1349.0633759567206,825.4635971859342" style="stroke:yellowgreen;fill:none;stroke-width:2;stroke-linecap:round;stroke-linejoin:round;" /><path d="M 1343.2620681374617 823.578172144675 L 1349.8144551125008 823.152584398918 L 1348.3122968009404 827.7746099729503 Z" style="stroke:yellowgreen;fill:yellowgreen;stroke-linecap:butt;stroke-linejoin:miter;" /><path d="M 1859.7599999999998,991.44 L 1341.3599999999997,907.2 L 830.9551271504537,824.2592081619489" style="stroke:yellowgreen;fill:none;stroke-width:2;stroke-linecap:round;stroke-linejoin:round;" /><path d="M 824.9341054692476 823.280792138753 L 831.3448895990383 821.8606700168128 L 830.565364701869 826.6577463070852 Z" style="stroke:yellowgreen;fill:yellowgreen;stroke-linecap:butt;stroke-linejoin:miter;" /><path d="M 1859.7599999999998,991.44 L 1730.1599999999999,907.1999999999999 L 1607.3513932920353,827.3744056398228" style="stroke:yellowgreen;fill:none;stroke-width:2;stroke-linecap:round;stroke-linejoin:round;" /><path d="M 1602.2368872326012 824.0499767011908 L 1608.6757149839818 825.3369876522123 L 1606.0270716000882 829.4118236274334 Z" style="stroke:yellowgreen;fill:yellowgreen;stroke-linecap:butt;stroke-linejoin:miter;" /><path d="M 2118.96,991.44 L 1730.16,907.1999999999999 L 1349.276317434217,824.6752021107471" style="stroke:green;fill:none;stroke-width:2;stroke-linecap:round;stroke-linejoin:round;" /><path d="M 1343.3146462800535 823.3835066940117 L 1349.790878067441 822.3003068804819 L 1348.7617568009928 827.0500973410121 Z" style="stroke:green;fill:green;stroke-linecap:butt;stroke-linejoin:miter;" /><path d="M 2118.96,991.44 L 1211.7600000000002,907.1999999999998 L 312.6253032990006,823.7089210206212" style="stroke:green;fill:none;stroke-width:2;stroke-linecap:round;stroke-linejoin:round;" /><path d="M 306.55143291333343 823.1449187705235 L 312.84997960518706 821.289330030921 L 312.4006269928142 826.1285120103214 Z" style="stroke:green;fill:green;stroke-linecap:butt;stroke-linejoin:miter;" /><path d="M 2118.96,991.44 L 1859.76,907.1999999999999 L 1608.2633759567207,825.4635971859343" style="stroke:green;fill:none;stroke-width:2;stroke-linecap:round;stroke-linejoin:round;" /><path d="M 1602.4620681374618 823.5781721446751 L 1609.0144551125009 823.1525843989181 L 1607.5122968009405 827.7746099729504 Z" style="stroke:green;fill:green;stroke-linecap:butt;stroke-linejoin:miter;" /><path d="M 2378.16,991.44 L 1730.16,907.1999999999999 L 1090.1924105004803,824.0042133650624" style="stroke:blue;fill:none;stroke-width:2;stroke-linecap:round;stroke-linejoin:round;" /><path d="M 1084.1433112346863 823.2178304605092 L 1090.5056745099987 821.5944902149183 L 1089.8791464909614 826.4139365152064 Z" style="stroke:blue;fill:blue;stroke-linecap:butt;stroke-linejoin:miter;" /><path d="M 2851.2,1036.8 L 2766.96,1036.8 L 2690.8199999999997,1036.8" style="stroke:violet;fill:none;stroke-width:2;stroke-linecap:round;stroke-linejoin:round;" /><path d="M 2684.72 1036.8 L 2690.82 1034.37 L 2690.82 1039.23 Z" style="stroke:violet;fill:violet;stroke-linecap:butt;stroke-linejoin:miter;" /><path d="M 45.35999999999999,1250.64 L 693.3599999999999,1166.3999999999999 L 1333.3275894995197,1083.2042133650623" style="stroke:red;fill:none;stroke-width:2;stroke-linecap:round;stroke-linejoin:round;" /><path d="M 1339.3766887653135 1082.417830460509 L 1333.6408535090384 1085.6139365152062 L 1333.014325490001 1080.7944902149181 Z" style="stroke:red;fill:red;stroke-linecap:butt;stroke-linejoin:miter;" /><text x="45.35999999999999" y="251.5" fill="black" font-size="14" font-family="sans-serif" text-anchor="middle" transform="rotate(0 45.35999999999999 257.09999999999997)"><tspan x="45.35999999999999" dy="11.200000000000001">MATH1320</tspan></text><text x="45.35999999999999" y="510.7" fill="black" font-size="14" font-family="sans-serif" text-anchor="middle" transform="rotate(0 45.35999999999999 516.3)"><tspan x="45.35999999999999" dy="11.200000000000001">MATH2120</tspan></text><text x="304.56" y="510.7" fill="black" font-size="14" font-family="sans-serif" text-anchor="middle" transform="rotate(0 304.56 516.3)"><tspan x="304.56" dy="11.200000000000001">MATH2310</tspan></text><text x="563.7599999999999" y="510.7" fill="black" font-size="14" font-family="sans-serif" text-anchor="middle" transform="rotate(0 563.7599999999999 516.3)"><tspan x="563.7599999999999" dy="11.200000000000001">MATH2315</tspan></text><text x="45.35999999999999" y="769.9" fill="black" font-size="14" font-family="sans-serif" text-anchor="middle" transform="rotate(0 45.35999999999999 775.5)"><tspan x="45.35999999999999" dy="11.200000000000001">MATH3000</tspan></text><text x="304.56" y="769.9" fill="black" font-size="14" font-family="sans-serif" text-anchor="middle" transform="rotate(0 304.56 775.5)"><tspan x="304.56" dy="11.200000000000001">MATH3080</tspan></text><text x="563.7599999999999" y="769.9" fill="black" font-size="14" font-family="sans-serif" text-anchor="middle" transform="rotate(0 563.7599999999999 775.5)"><tspan x="563.7599999999999" dy="11.200000000000001">MATH3100</tspan></text><text x="563.7599999999999" y="794.3199999999999" fill="black" font-size="8" font-family="sans-serif" text-anchor="middle" transform="rotate(0 563.7599999999999 802.3199999999999)"><tspan x="563.7599999999999" dy="8">MATH2315, MATH2120, </tspan><tspan x="563.7599999999999" dy="8">MATH2310, MATH1320, </tspan></text><text x="822.9599999999999" y="769.9" fill="black" font-size="14" font-family="sans-serif" text-anchor="middle" transform="rotate(0 822.9599999999999 775.5)"><tspan x="822.9599999999999" dy="11.200000000000001">MATH3250</tspan></text><text x="1082.1599999999999" y="769.9" fill="black" font-size="14" font-family="sans-serif" text-anchor="middle" transform="rotate(0 1082.1599999999999 775.5)"><tspan x="1082.1599999999999" dy="11.200000000000001">MATH3310</tspan></text><text x="1341.36" y="769.9" fill="black" font-size="14" font-family="sans-serif" text-anchor="middle" transform="rotate(0 1341.36 775.5)"><tspan x="1341.36" dy="11.200000000000001">MATH3315</tspan></text><text x="1341.36" y="799.12" fill="black" font-size="8" font-family="sans-serif" text-anchor="middle" transform="rotate(0 1341.36 802.3199999999999)"><tspan x="1341.36" dy="6.4">MATH2315,</tspan></text><text x="1600.56" y="769.9" fill="black" font-size="14" font-family="sans-serif" text-anchor="middle" transform="rotate(0 1600.56 775.5)"><tspan x="1600.56" dy="11.200000000000001">MATH3351</tspan></text><text x="1859.7599999999998" y="769.9" fill="black" font-size="14" font-family="sans-serif" text-anchor="middle" transform="rotate(0 1859.7599999999998 775.5)"><tspan x="1859.7599999999998" dy="11.200000000000001">MATH3354</tspan></text><text x="45.35999999999999" y="1029.1" fill="black" font-size="14" font-family="sans-serif" text-anchor="middle" transform="rotate(0 45.35999999999999 1034.7)"><tspan x="45.35999999999999" dy="11.200000000000001">MATH4110</tspan></text><text x="45.35999999999999" y="1053.5199999999998" fill="black" font-size="8" font-family="sans-serif" text-anchor="middle" transform="rotate(0 45.35999999999999 1061.5199999999998)"><tspan x="45.35999999999999" dy="8">MATH3351, MATH4651, </tspan><tspan x="45.35999999999999" dy="8">MATH3100, MATH3315, </tspan></text><text x="304.56" y="1029.1" fill="black" font-size="14" font-family="sans-serif" text-anchor="middle" transform="rotate(0 304.56 1034.7)"><tspan x="304.56" dy="11.200000000000001">MATH4140</tspan></text><text x="304.56" y="1045.5199999999998" fill="black" font-size="8" font-family="sans-serif" text-anchor="middle" transform="rotate(0 304.56 1061.5199999999998)"><tspan x="304.56" dy="8">MATH4310, MATH3315, </tspan><tspan x="304.56" dy="8">MATH4651, MATH3310, </tspan><tspan x="304.56" dy="8">MATH3000, MATH3354, </tspan><tspan x="304.56" dy="8">MATH3351, MATH3100, </tspan></text><text x="563.7599999999999" y="1029.1" fill="black" font-size="14" font-family="sans-serif" text-anchor="middle" transform="rotate(0 563.7599999999999 1034.7)"><tspan x="563.7599999999999" dy="11.200000000000001">MATH4250</tspan></text><text x="822.9599999999999" y="1029.1" fill="black" font-size="14" font-family="sans-serif" text-anchor="middle" transform="rotate(0 822.9599999999999 1034.7)"><tspan x="822.9599999999999" dy="11.200000000000001">MATH4310</tspan></text><text x="1082.1599999999999" y="1029.1" fill="black" font-size="14" font-family="sans-serif" text-anchor="middle" transform="rotate(0 1082.1599999999999 1034.7)"><tspan x="1082.1599999999999" dy="11.200000000000001">MATH4651</tspan></text><text x="1341.36" y="1029.1" fill="black" font-size="14" font-family="sans-serif" text-anchor="middle" transform="rotate(0 1341.36 1034.7)"><tspan x="1341.36" dy="11.200000000000001">MATH4652</tspan></text><text x="1341.36" y="1049.5199999999998" fill="black" font-size="8" font-family="sans-serif" text-anchor="middle" transform="rotate(0 1341.36 1061.5199999999998)"><tspan x="1341.36" dy="8">MATH3315, MATH3080, </tspan><tspan x="1341.36" dy="8">MATH4651, MATH3354, </tspan><tspan x="1341.36" dy="8">MATH3351,</tspan></text><text x="1600.56" y="1029.1" fill="black" font-size="14" font-family="sans-serif" text-anchor="middle" transform="rotate(0 1600.56 1034.7)"><tspan x="1600.56" dy="11.200000000000001">MATH4660</tspan></text><text x="1600.56" y="1053.5199999999998" fill="black" font-size="8" font-family="sans-serif" text-anchor="middle" transform="rotate(0 1600.56 1061.5199999999998)"><tspan x="1600.56" dy="8">MATH3354, MATH3351, </tspan><tspan x="1600.56" dy="8">MATH4652,</tspan></text><text x="1859.7599999999998" y="1029.1" fill="black" font-size="14" font-family="sans-serif" text-anchor="middle" transform="rotate(0 1859.7599999999998 1034.7)"><tspan x="1859.7599999999998" dy="11.200000000000001">MATH4720</tspan></text><text x="1859.7599999999998" y="1045.5199999999998" fill="black" font-size="8" font-family="sans-serif" text-anchor="middle" transform="rotate(0 1859.7599999999998 1061.5199999999998)"><tspan x="1859.7599999999998" dy="8">MATH2310, MATH3315, </tspan><tspan x="1859.7599999999998" dy="8">MATH3250, MATH4651, </tspan><tspan x="1859.7599999999998" dy="8">MATH4250, MATH3351, </tspan><tspan x="1859.7599999999998" dy="8">MATH2315,</tspan></text><text x="2118.96" y="1029.1" fill="black" font-size="14" font-family="sans-serif" text-anchor="middle" transform="rotate(0 2118.96 1034.7)"><tspan x="2118.96" dy="11.200000000000001">MATH4750</tspan></text><text x="2118.96" y="1045.5199999999998" fill="black" font-size="8" font-family="sans-serif" text-anchor="middle" transform="rotate(0 2118.96 1061.5199999999998)"><tspan x="2118.96" dy="8">MATH2310, MATH3315, </tspan><tspan x="2118.96" dy="8">MATH4651, MATH3080, </tspan><tspan x="2118.96" dy="8">MATH3351, MATH2315, </tspan><tspan x="2118.96" dy="8">MATH2120,</tspan></text><text x="2378.16" y="1029.1" fill="black" font-size="14" font-family="sans-serif" text-anchor="middle" transform="rotate(0 2378.16 1034.7)"><tspan x="2378.16" dy="11.200000000000001">MATH4770</tspan></text><text x="2378.16" y="1058.3199999999997" fill="black" font-size="8" font-family="sans-serif" text-anchor="middle" transform="rotate(0 2378.16 1061.5199999999998)"><tspan x="2378.16" dy="6.4">MATH4310, MATH3310, </tspan></text><text x="2637.36" y="1029.1" fill="black" font-size="14" font-family="sans-serif" text-anchor="middle" transform="rotate(0 2637.36 1034.7)"><tspan x="2637.36" dy="11.200000000000001">MATH4900</tspan></text><text x="2896.56" y="1029.1" fill="black" font-size="14" font-family="sans-serif" text-anchor="middle" transform="rotate(0 2896.56 1034.7)"><tspan x="2896.56" dy="11.200000000000001">MATH4901</tspan></text><text x="2896.56" y="1058.3199999999997" fill="black" font-size="8" font-family="sans-serif" text-anchor="middle" transform="rotate(0 2896.56 1061.5199999999998)"><tspan x="2896.56" dy="6.4">MATH4900,</tspan></text><text x="45.35999999999999" y="1288.2999999999997" fill="black" font-size="14" font-family="sans-serif" text-anchor="middle" transform="rotate(0 45.35999999999999 1293.8999999999999)"><tspan x="45.35999999999999" dy="11.200000000000001">MATH5030</tspan></text><text x="45.35999999999999" y="1308.7199999999998" fill="black" font-size="8" font-family="sans-serif" text-anchor="middle" transform="rotate(0 45.35999999999999 1320.7199999999998)"><tspan x="45.35999999999999" dy="8">MATH2310, MATH3354, </tspan><tspan x="45.35999999999999" dy="8">MATH2120, MATH2315, </tspan><tspan x="45.35999999999999" dy="8">MATH4652,</tspan></text></svg>