<svg xmlns="http://www.w3.org/2000/svg" xml:lang="en" height="600.16pt" width="463.39419999999996pt" viewBox="-118.64000000000001 88.71999999999998 463.39419999999996 600.16"><circle cx="38.879999999999995" cy="129.6" r="38.879999999999995" style="stroke:black;fill:lightblue;stroke-width:2;" /><circle cx="38.879999999999995" cy="259.2" r="38.879999999999995" style="stroke:black;fill:lightblue;stroke-width:2;" /><circle cx="38.879999999999995" cy="388.79999999999995" r="38.879999999999995" style="stroke:black;fill:lightblue;stroke-width:2;" /><circle cx="168.48" cy="388.79999999999995" r="38.879999999999995" style="stroke:black;fill:lightblue;stroke-width:2;" /><circle cx="298.08" cy="388.79999999999995" r="38.879999999999995" style="stroke:black;fill:lightblue;stroke-width:2;" /><circle cx="38.879999999999995" cy="518.4" r="38.879999999999995" style="stroke:black;fill:lightblue;stroke-width:2;" /><circle cx="168.48" cy="518.4" r="38.879999999999995" style="stroke:black;fill:lightblue;stroke-width:2;" /><circle cx="298.08" cy="518.4" r="38.879999999999995" style="stroke:black;fill:lightblue;stroke-width:2;" /><circle cx="38.879999999999995" cy="648.0" r="38.879999999999995" style="stroke:black;fill:lightblue;stroke-width:2;" /><path d="M 38.879999999999995 349.92 Q -51.84000000000001 259.2 38.879999999999995 168.48" style="stroke:black;fill:none;stroke-width:2;stroke-linecap:round;" /><path d="M 298.08 479.52 Q 77.75999999999995 518.4 38.88 298.08" style="stroke:black;fill:none;stroke-width:2;stroke-linecap:round;" /><path d="M 38.879999999999995 609.12 Q -116.64000000000001 453.59999999999997 38.879999999999995 298.08" style="stroke:black;fill:none;stroke-width:2;stroke-linecap:round;" /><path d="M 38.879999999999995 609.12 Q 77.75999999999995 388.79999999999995 298.08 427.67999999999995" style="stroke:black;fill:none;stroke-width:2;stroke-linecap:round;" /><path d="M 38.879999999999995,349.92 L 38.879999999999995,324.0 L 38.879999999999995,306.17999999999995" style="stroke:black;fill:none;stroke-width:2;stroke-linecap:round;stroke-linejoin:round;" /><path d="M 38.879999999999995 300.08 L 41.309999999999995 306.18 L 36.449999999999996 306.18 Z" style="stroke:black;fill:black;stroke-linecap:butt;stroke-linejoin:miter;" /><path d="M 38.879999999999995,479.52 L 103.68,453.59999999999997 L 160.9593388038294,430.68826447846817" style="stroke:black;fill:none;stroke-width:2;stroke-linecap:round;stroke-linejoin:round;" /><path d="M 166.62304661822947 428.42278135270817 L 161.86181814736986 432.9444628373194 L 160.05685946028893 428.43206611961705 Z" style="stroke:black;fill:black;stroke-linecap:butt;stroke-linejoin:miter;" /><path d="M 38.879999999999995,479.52 L 168.47999999999996,453.59999999999997 L 290.1372965269034,429.2685406946192" style="stroke:black;fill:none;stroke-width:2;stroke-linecap:round;stroke-linejoin:round;" /><path d="M 296.11883864861807 428.07223227027634 L 290.6138587352893 431.6513517365482 L 289.6607343185177 426.8857296526903 Z" style="stroke:black;fill:black;stroke-linecap:butt;stroke-linejoin:miter;" /><path d="M 168.48,479.52 L 168.48,453.59999999999997 L 168.48,435.78" style="stroke:black;fill:none;stroke-width:2;stroke-linecap:round;stroke-linejoin:round;" /><path d="M 168.48 429.67999999999995 L 170.91 435.78 L 166.04999999999998 435.78 Z" style="stroke:black;fill:black;stroke-linecap:butt;stroke-linejoin:miter;" /><path d="M 129.6,518.4 L 103.68,518.4 L 85.86,518.4" style="stroke:black;fill:none;stroke-width:2;stroke-linecap:round;stroke-linejoin:round;" /><path d="M 79.75999999999999 518.4 L 85.85999999999999 515.97 L 85.85999999999999 520.8299999999999 Z" style="stroke:black;fill:black;stroke-linecap:butt;stroke-linejoin:miter;" /><path d="M 298.08,479.52 L 233.28,453.59999999999997 L 176.00066119617063,430.68826447846817" style="stroke:black;fill:none;stroke-width:2;stroke-linecap:round;stroke-linejoin:round;" /><path d="M 170.33695338177054 428.42278135270817 L 176.90314053971107 428.43206611961705 L 175.09818185263012 432.9444628373194 Z" style="stroke:black;fill:black;stroke-linecap:butt;stroke-linejoin:miter;" /><path d="M 38.879999999999995,609.12 L 38.879999999999995,583.1999999999999 L 38.879999999999995,565.38" style="stroke:black;fill:none;stroke-width:2;stroke-linecap:round;stroke-linejoin:round;" /><path d="M 38.879999999999995 559.28 L 41.309999999999995 565.3799999999999 L 36.449999999999996 565.3799999999999 Z" style="stroke:black;fill:black;stroke-linecap:butt;stroke-linejoin:miter;" /><text x="38.879999999999995" y="121.89999999999999" fill="black" font-size="14" font-family="sans-serif" text-anchor="middle" transform="rotate(0 38.879999999999995 127.49999999999999)"><tspan x="38.879999999999995" dy="11.200000000000001">MATH1320</tspan></text><text x="38.879999999999995" y="251.5" fill="black" font-size="14" font-family="sans-serif" text-anchor="middle" transform="rotate(0 38.879999999999995 257.09999999999997)"><tspan x="38.879999999999995" dy="11.200000000000001">MATH2310</tspan></text><text x="38.879999999999995" y="381.1" fill="black" font-size="14" font-family="sans-serif" text-anchor="middle" transform="rotate(0 38.879999999999995 386.7)"><tspan x="38.879999999999995" dy="11.200000000000001">MATH3100</tspan></text><text x="168.48" y="381.1" fill="black" font-size="14" font-family="sans-serif" text-anchor="middle" transform="rotate(0 168.48 386.7)"><tspan x="168.48" dy="11.200000000000001">MATH3351</tspan></text><text x="298.08" y="381.1" fill="black" font-size="14" font-family="sans-serif" text-anchor="middle" transform="rotate(0 298.08 386.7)"><tspan x="298.08" dy="11.200000000000001">MATH3354</tspan></text><text x="38.879999999999995" y="510.7" fill="black" font-size="14" font-family="sans-serif" text-anchor="middle" transform="rotate(0 38.879999999999995 516.3)"><tspan x="38.879999999999995" dy="11.200000000000001">MATH4652</tspan></text><text x="168.48" y="510.7" fill="black" font-size="14" font-family="sans-serif" text-anchor="middle" transform="rotate(0 168.48 516.3)"><tspan x="168.48" dy="11.200000000000001">MATH4660</tspan></text><text x="298.08" y="510.7" fill="black" font-size="14" font-family="sans-serif" text-anchor="middle" transform="rotate(0 298.08 516.3)"><tspan x="298.08" dy="11.200000000000001">MATH4750</tspan></text><text x="38.879999999999995" y="640.3" fill="black" font-size="14" font-family="sans-serif" text-anchor="middle" transform="rotate(0 38.879999999999995 645.9)"><tspan x="38.879999999999995" dy="11.200000000000001">MATH5030</tspan></text></svg>